%TF.GenerationSoftware,KiCad,Pcbnew,8.0.6*%
%TF.CreationDate,2024-12-11T18:08:37+01:00*%
%TF.ProjectId,AsicsBoard - 10xBM1370 - 01A,41736963-7342-46f6-9172-64202d203130,rev?*%
%TF.SameCoordinates,Original*%
%TF.FileFunction,Legend,Top*%
%TF.FilePolarity,Positive*%
%FSLAX46Y46*%
G04 Gerber Fmt 4.6, Leading zero omitted, Abs format (unit mm)*
G04 Created by KiCad (PCBNEW 8.0.6) date 2024-12-11 18:08:37*
%MOMM*%
%LPD*%
G01*
G04 APERTURE LIST*
%ADD10C,0.150000*%
%ADD11C,0.120000*%
%ADD12C,0.050000*%
%ADD13C,0.227485*%
%TA.AperFunction,Profile*%
%ADD14C,0.100000*%
%TD*%
G04 APERTURE END LIST*
D10*
X86983095Y-118295819D02*
X86983095Y-117295819D01*
X86983095Y-117772009D02*
X87554523Y-117772009D01*
X87554523Y-118295819D02*
X87554523Y-117295819D01*
X88459285Y-117295819D02*
X88268809Y-117295819D01*
X88268809Y-117295819D02*
X88173571Y-117343438D01*
X88173571Y-117343438D02*
X88125952Y-117391057D01*
X88125952Y-117391057D02*
X88030714Y-117533914D01*
X88030714Y-117533914D02*
X87983095Y-117724390D01*
X87983095Y-117724390D02*
X87983095Y-118105342D01*
X87983095Y-118105342D02*
X88030714Y-118200580D01*
X88030714Y-118200580D02*
X88078333Y-118248200D01*
X88078333Y-118248200D02*
X88173571Y-118295819D01*
X88173571Y-118295819D02*
X88364047Y-118295819D01*
X88364047Y-118295819D02*
X88459285Y-118248200D01*
X88459285Y-118248200D02*
X88506904Y-118200580D01*
X88506904Y-118200580D02*
X88554523Y-118105342D01*
X88554523Y-118105342D02*
X88554523Y-117867247D01*
X88554523Y-117867247D02*
X88506904Y-117772009D01*
X88506904Y-117772009D02*
X88459285Y-117724390D01*
X88459285Y-117724390D02*
X88364047Y-117676771D01*
X88364047Y-117676771D02*
X88173571Y-117676771D01*
X88173571Y-117676771D02*
X88078333Y-117724390D01*
X88078333Y-117724390D02*
X88030714Y-117772009D01*
X88030714Y-117772009D02*
X87983095Y-117867247D01*
X79367999Y-104822033D02*
X79134666Y-104488700D01*
X78967999Y-104822033D02*
X78967999Y-104122033D01*
X78967999Y-104122033D02*
X79234666Y-104122033D01*
X79234666Y-104122033D02*
X79301333Y-104155366D01*
X79301333Y-104155366D02*
X79334666Y-104188700D01*
X79334666Y-104188700D02*
X79367999Y-104255366D01*
X79367999Y-104255366D02*
X79367999Y-104355366D01*
X79367999Y-104355366D02*
X79334666Y-104422033D01*
X79334666Y-104422033D02*
X79301333Y-104455366D01*
X79301333Y-104455366D02*
X79234666Y-104488700D01*
X79234666Y-104488700D02*
X78967999Y-104488700D01*
X79634666Y-104188700D02*
X79667999Y-104155366D01*
X79667999Y-104155366D02*
X79734666Y-104122033D01*
X79734666Y-104122033D02*
X79901333Y-104122033D01*
X79901333Y-104122033D02*
X79967999Y-104155366D01*
X79967999Y-104155366D02*
X80001333Y-104188700D01*
X80001333Y-104188700D02*
X80034666Y-104255366D01*
X80034666Y-104255366D02*
X80034666Y-104322033D01*
X80034666Y-104322033D02*
X80001333Y-104422033D01*
X80001333Y-104422033D02*
X79601333Y-104822033D01*
X79601333Y-104822033D02*
X80034666Y-104822033D01*
X80368000Y-104822033D02*
X80501333Y-104822033D01*
X80501333Y-104822033D02*
X80568000Y-104788700D01*
X80568000Y-104788700D02*
X80601333Y-104755366D01*
X80601333Y-104755366D02*
X80668000Y-104655366D01*
X80668000Y-104655366D02*
X80701333Y-104522033D01*
X80701333Y-104522033D02*
X80701333Y-104255366D01*
X80701333Y-104255366D02*
X80668000Y-104188700D01*
X80668000Y-104188700D02*
X80634666Y-104155366D01*
X80634666Y-104155366D02*
X80568000Y-104122033D01*
X80568000Y-104122033D02*
X80434666Y-104122033D01*
X80434666Y-104122033D02*
X80368000Y-104155366D01*
X80368000Y-104155366D02*
X80334666Y-104188700D01*
X80334666Y-104188700D02*
X80301333Y-104255366D01*
X80301333Y-104255366D02*
X80301333Y-104422033D01*
X80301333Y-104422033D02*
X80334666Y-104488700D01*
X80334666Y-104488700D02*
X80368000Y-104522033D01*
X80368000Y-104522033D02*
X80434666Y-104555366D01*
X80434666Y-104555366D02*
X80568000Y-104555366D01*
X80568000Y-104555366D02*
X80634666Y-104522033D01*
X80634666Y-104522033D02*
X80668000Y-104488700D01*
X80668000Y-104488700D02*
X80701333Y-104422033D01*
X195449999Y-102316033D02*
X195216666Y-101982700D01*
X195049999Y-102316033D02*
X195049999Y-101616033D01*
X195049999Y-101616033D02*
X195316666Y-101616033D01*
X195316666Y-101616033D02*
X195383333Y-101649366D01*
X195383333Y-101649366D02*
X195416666Y-101682700D01*
X195416666Y-101682700D02*
X195449999Y-101749366D01*
X195449999Y-101749366D02*
X195449999Y-101849366D01*
X195449999Y-101849366D02*
X195416666Y-101916033D01*
X195416666Y-101916033D02*
X195383333Y-101949366D01*
X195383333Y-101949366D02*
X195316666Y-101982700D01*
X195316666Y-101982700D02*
X195049999Y-101982700D01*
X196049999Y-101849366D02*
X196049999Y-102316033D01*
X195883333Y-101582700D02*
X195716666Y-102082700D01*
X195716666Y-102082700D02*
X196149999Y-102082700D01*
X196750000Y-101616033D02*
X196416666Y-101616033D01*
X196416666Y-101616033D02*
X196383333Y-101949366D01*
X196383333Y-101949366D02*
X196416666Y-101916033D01*
X196416666Y-101916033D02*
X196483333Y-101882700D01*
X196483333Y-101882700D02*
X196650000Y-101882700D01*
X196650000Y-101882700D02*
X196716666Y-101916033D01*
X196716666Y-101916033D02*
X196750000Y-101949366D01*
X196750000Y-101949366D02*
X196783333Y-102016033D01*
X196783333Y-102016033D02*
X196783333Y-102182700D01*
X196783333Y-102182700D02*
X196750000Y-102249366D01*
X196750000Y-102249366D02*
X196716666Y-102282700D01*
X196716666Y-102282700D02*
X196650000Y-102316033D01*
X196650000Y-102316033D02*
X196483333Y-102316033D01*
X196483333Y-102316033D02*
X196416666Y-102282700D01*
X196416666Y-102282700D02*
X196383333Y-102249366D01*
X107649999Y-73316032D02*
X107416666Y-72982699D01*
X107249999Y-73316032D02*
X107249999Y-72616032D01*
X107249999Y-72616032D02*
X107516666Y-72616032D01*
X107516666Y-72616032D02*
X107583333Y-72649365D01*
X107583333Y-72649365D02*
X107616666Y-72682699D01*
X107616666Y-72682699D02*
X107649999Y-72749365D01*
X107649999Y-72749365D02*
X107649999Y-72849365D01*
X107649999Y-72849365D02*
X107616666Y-72916032D01*
X107616666Y-72916032D02*
X107583333Y-72949365D01*
X107583333Y-72949365D02*
X107516666Y-72982699D01*
X107516666Y-72982699D02*
X107249999Y-72982699D01*
X108249999Y-72849365D02*
X108249999Y-73316032D01*
X108083333Y-72582699D02*
X107916666Y-73082699D01*
X107916666Y-73082699D02*
X108349999Y-73082699D01*
X108750000Y-72616032D02*
X108816666Y-72616032D01*
X108816666Y-72616032D02*
X108883333Y-72649365D01*
X108883333Y-72649365D02*
X108916666Y-72682699D01*
X108916666Y-72682699D02*
X108950000Y-72749365D01*
X108950000Y-72749365D02*
X108983333Y-72882699D01*
X108983333Y-72882699D02*
X108983333Y-73049365D01*
X108983333Y-73049365D02*
X108950000Y-73182699D01*
X108950000Y-73182699D02*
X108916666Y-73249365D01*
X108916666Y-73249365D02*
X108883333Y-73282699D01*
X108883333Y-73282699D02*
X108816666Y-73316032D01*
X108816666Y-73316032D02*
X108750000Y-73316032D01*
X108750000Y-73316032D02*
X108683333Y-73282699D01*
X108683333Y-73282699D02*
X108650000Y-73249365D01*
X108650000Y-73249365D02*
X108616666Y-73182699D01*
X108616666Y-73182699D02*
X108583333Y-73049365D01*
X108583333Y-73049365D02*
X108583333Y-72882699D01*
X108583333Y-72882699D02*
X108616666Y-72749365D01*
X108616666Y-72749365D02*
X108650000Y-72682699D01*
X108650000Y-72682699D02*
X108683333Y-72649365D01*
X108683333Y-72649365D02*
X108750000Y-72616032D01*
X191406665Y-76955966D02*
X191406665Y-76389300D01*
X191406665Y-76389300D02*
X191373332Y-76322633D01*
X191373332Y-76322633D02*
X191339998Y-76289300D01*
X191339998Y-76289300D02*
X191273332Y-76255966D01*
X191273332Y-76255966D02*
X191139998Y-76255966D01*
X191139998Y-76255966D02*
X191073332Y-76289300D01*
X191073332Y-76289300D02*
X191039998Y-76322633D01*
X191039998Y-76322633D02*
X191006665Y-76389300D01*
X191006665Y-76389300D02*
X191006665Y-76955966D01*
X190306665Y-76255966D02*
X190706665Y-76255966D01*
X190506665Y-76255966D02*
X190506665Y-76955966D01*
X190506665Y-76955966D02*
X190573332Y-76855966D01*
X190573332Y-76855966D02*
X190639999Y-76789300D01*
X190639999Y-76789300D02*
X190706665Y-76755966D01*
X189873332Y-76955966D02*
X189806665Y-76955966D01*
X189806665Y-76955966D02*
X189739998Y-76922633D01*
X189739998Y-76922633D02*
X189706665Y-76889300D01*
X189706665Y-76889300D02*
X189673332Y-76822633D01*
X189673332Y-76822633D02*
X189639998Y-76689300D01*
X189639998Y-76689300D02*
X189639998Y-76522633D01*
X189639998Y-76522633D02*
X189673332Y-76389300D01*
X189673332Y-76389300D02*
X189706665Y-76322633D01*
X189706665Y-76322633D02*
X189739998Y-76289300D01*
X189739998Y-76289300D02*
X189806665Y-76255966D01*
X189806665Y-76255966D02*
X189873332Y-76255966D01*
X189873332Y-76255966D02*
X189939998Y-76289300D01*
X189939998Y-76289300D02*
X189973332Y-76322633D01*
X189973332Y-76322633D02*
X190006665Y-76389300D01*
X190006665Y-76389300D02*
X190039998Y-76522633D01*
X190039998Y-76522633D02*
X190039998Y-76689300D01*
X190039998Y-76689300D02*
X190006665Y-76822633D01*
X190006665Y-76822633D02*
X189973332Y-76889300D01*
X189973332Y-76889300D02*
X189939998Y-76922633D01*
X189939998Y-76922633D02*
X189873332Y-76955966D01*
X123949999Y-70716034D02*
X123716666Y-70382701D01*
X123549999Y-70716034D02*
X123549999Y-70016034D01*
X123549999Y-70016034D02*
X123816666Y-70016034D01*
X123816666Y-70016034D02*
X123883333Y-70049367D01*
X123883333Y-70049367D02*
X123916666Y-70082701D01*
X123916666Y-70082701D02*
X123949999Y-70149367D01*
X123949999Y-70149367D02*
X123949999Y-70249367D01*
X123949999Y-70249367D02*
X123916666Y-70316034D01*
X123916666Y-70316034D02*
X123883333Y-70349367D01*
X123883333Y-70349367D02*
X123816666Y-70382701D01*
X123816666Y-70382701D02*
X123549999Y-70382701D01*
X124549999Y-70249367D02*
X124549999Y-70716034D01*
X124383333Y-69982701D02*
X124216666Y-70482701D01*
X124216666Y-70482701D02*
X124649999Y-70482701D01*
X125216666Y-70249367D02*
X125216666Y-70716034D01*
X125050000Y-69982701D02*
X124883333Y-70482701D01*
X124883333Y-70482701D02*
X125316666Y-70482701D01*
X179149999Y-104916033D02*
X178916666Y-104582700D01*
X178749999Y-104916033D02*
X178749999Y-104216033D01*
X178749999Y-104216033D02*
X179016666Y-104216033D01*
X179016666Y-104216033D02*
X179083333Y-104249366D01*
X179083333Y-104249366D02*
X179116666Y-104282700D01*
X179116666Y-104282700D02*
X179149999Y-104349366D01*
X179149999Y-104349366D02*
X179149999Y-104449366D01*
X179149999Y-104449366D02*
X179116666Y-104516033D01*
X179116666Y-104516033D02*
X179083333Y-104549366D01*
X179083333Y-104549366D02*
X179016666Y-104582700D01*
X179016666Y-104582700D02*
X178749999Y-104582700D01*
X179749999Y-104449366D02*
X179749999Y-104916033D01*
X179583333Y-104182700D02*
X179416666Y-104682700D01*
X179416666Y-104682700D02*
X179849999Y-104682700D01*
X180150000Y-104916033D02*
X180283333Y-104916033D01*
X180283333Y-104916033D02*
X180350000Y-104882700D01*
X180350000Y-104882700D02*
X180383333Y-104849366D01*
X180383333Y-104849366D02*
X180450000Y-104749366D01*
X180450000Y-104749366D02*
X180483333Y-104616033D01*
X180483333Y-104616033D02*
X180483333Y-104349366D01*
X180483333Y-104349366D02*
X180450000Y-104282700D01*
X180450000Y-104282700D02*
X180416666Y-104249366D01*
X180416666Y-104249366D02*
X180350000Y-104216033D01*
X180350000Y-104216033D02*
X180216666Y-104216033D01*
X180216666Y-104216033D02*
X180150000Y-104249366D01*
X180150000Y-104249366D02*
X180116666Y-104282700D01*
X180116666Y-104282700D02*
X180083333Y-104349366D01*
X180083333Y-104349366D02*
X180083333Y-104516033D01*
X180083333Y-104516033D02*
X180116666Y-104582700D01*
X180116666Y-104582700D02*
X180150000Y-104616033D01*
X180150000Y-104616033D02*
X180216666Y-104649366D01*
X180216666Y-104649366D02*
X180350000Y-104649366D01*
X180350000Y-104649366D02*
X180416666Y-104616033D01*
X180416666Y-104616033D02*
X180450000Y-104582700D01*
X180450000Y-104582700D02*
X180483333Y-104516033D01*
X184593333Y-98044033D02*
X184593333Y-98610700D01*
X184593333Y-98610700D02*
X184626667Y-98677366D01*
X184626667Y-98677366D02*
X184660000Y-98710700D01*
X184660000Y-98710700D02*
X184726667Y-98744033D01*
X184726667Y-98744033D02*
X184860000Y-98744033D01*
X184860000Y-98744033D02*
X184926667Y-98710700D01*
X184926667Y-98710700D02*
X184960000Y-98677366D01*
X184960000Y-98677366D02*
X184993333Y-98610700D01*
X184993333Y-98610700D02*
X184993333Y-98044033D01*
X185693333Y-98744033D02*
X185293333Y-98744033D01*
X185493333Y-98744033D02*
X185493333Y-98044033D01*
X185493333Y-98044033D02*
X185426666Y-98144033D01*
X185426666Y-98144033D02*
X185360000Y-98210700D01*
X185360000Y-98210700D02*
X185293333Y-98244033D01*
X185960000Y-98110700D02*
X185993333Y-98077366D01*
X185993333Y-98077366D02*
X186060000Y-98044033D01*
X186060000Y-98044033D02*
X186226667Y-98044033D01*
X186226667Y-98044033D02*
X186293333Y-98077366D01*
X186293333Y-98077366D02*
X186326667Y-98110700D01*
X186326667Y-98110700D02*
X186360000Y-98177366D01*
X186360000Y-98177366D02*
X186360000Y-98244033D01*
X186360000Y-98244033D02*
X186326667Y-98344033D01*
X186326667Y-98344033D02*
X185926667Y-98744033D01*
X185926667Y-98744033D02*
X186360000Y-98744033D01*
X112926666Y-98044033D02*
X112926666Y-98610700D01*
X112926666Y-98610700D02*
X112960000Y-98677366D01*
X112960000Y-98677366D02*
X112993333Y-98710700D01*
X112993333Y-98710700D02*
X113060000Y-98744033D01*
X113060000Y-98744033D02*
X113193333Y-98744033D01*
X113193333Y-98744033D02*
X113260000Y-98710700D01*
X113260000Y-98710700D02*
X113293333Y-98677366D01*
X113293333Y-98677366D02*
X113326666Y-98610700D01*
X113326666Y-98610700D02*
X113326666Y-98044033D01*
X113959999Y-98277366D02*
X113959999Y-98744033D01*
X113793333Y-98010700D02*
X113626666Y-98510700D01*
X113626666Y-98510700D02*
X114059999Y-98510700D01*
X70383333Y-86716033D02*
X70150000Y-86382700D01*
X69983333Y-86716033D02*
X69983333Y-86016033D01*
X69983333Y-86016033D02*
X70250000Y-86016033D01*
X70250000Y-86016033D02*
X70316667Y-86049366D01*
X70316667Y-86049366D02*
X70350000Y-86082700D01*
X70350000Y-86082700D02*
X70383333Y-86149366D01*
X70383333Y-86149366D02*
X70383333Y-86249366D01*
X70383333Y-86249366D02*
X70350000Y-86316033D01*
X70350000Y-86316033D02*
X70316667Y-86349366D01*
X70316667Y-86349366D02*
X70250000Y-86382700D01*
X70250000Y-86382700D02*
X69983333Y-86382700D01*
X71050000Y-86716033D02*
X70650000Y-86716033D01*
X70850000Y-86716033D02*
X70850000Y-86016033D01*
X70850000Y-86016033D02*
X70783333Y-86116033D01*
X70783333Y-86116033D02*
X70716667Y-86182700D01*
X70716667Y-86182700D02*
X70650000Y-86216033D01*
X183098095Y-57843819D02*
X183098095Y-56843819D01*
X183098095Y-57320009D02*
X183669523Y-57320009D01*
X183669523Y-57843819D02*
X183669523Y-56843819D01*
X184050476Y-56843819D02*
X184669523Y-56843819D01*
X184669523Y-56843819D02*
X184336190Y-57224771D01*
X184336190Y-57224771D02*
X184479047Y-57224771D01*
X184479047Y-57224771D02*
X184574285Y-57272390D01*
X184574285Y-57272390D02*
X184621904Y-57320009D01*
X184621904Y-57320009D02*
X184669523Y-57415247D01*
X184669523Y-57415247D02*
X184669523Y-57653342D01*
X184669523Y-57653342D02*
X184621904Y-57748580D01*
X184621904Y-57748580D02*
X184574285Y-57796200D01*
X184574285Y-57796200D02*
X184479047Y-57843819D01*
X184479047Y-57843819D02*
X184193333Y-57843819D01*
X184193333Y-57843819D02*
X184098095Y-57796200D01*
X184098095Y-57796200D02*
X184050476Y-57748580D01*
X147649999Y-104616033D02*
X147416666Y-104282700D01*
X147249999Y-104616033D02*
X147249999Y-103916033D01*
X147249999Y-103916033D02*
X147516666Y-103916033D01*
X147516666Y-103916033D02*
X147583333Y-103949366D01*
X147583333Y-103949366D02*
X147616666Y-103982700D01*
X147616666Y-103982700D02*
X147649999Y-104049366D01*
X147649999Y-104049366D02*
X147649999Y-104149366D01*
X147649999Y-104149366D02*
X147616666Y-104216033D01*
X147616666Y-104216033D02*
X147583333Y-104249366D01*
X147583333Y-104249366D02*
X147516666Y-104282700D01*
X147516666Y-104282700D02*
X147249999Y-104282700D01*
X147916666Y-103982700D02*
X147949999Y-103949366D01*
X147949999Y-103949366D02*
X148016666Y-103916033D01*
X148016666Y-103916033D02*
X148183333Y-103916033D01*
X148183333Y-103916033D02*
X148249999Y-103949366D01*
X148249999Y-103949366D02*
X148283333Y-103982700D01*
X148283333Y-103982700D02*
X148316666Y-104049366D01*
X148316666Y-104049366D02*
X148316666Y-104116033D01*
X148316666Y-104116033D02*
X148283333Y-104216033D01*
X148283333Y-104216033D02*
X147883333Y-104616033D01*
X147883333Y-104616033D02*
X148316666Y-104616033D01*
X148983333Y-104616033D02*
X148583333Y-104616033D01*
X148783333Y-104616033D02*
X148783333Y-103916033D01*
X148783333Y-103916033D02*
X148716666Y-104016033D01*
X148716666Y-104016033D02*
X148650000Y-104082700D01*
X148650000Y-104082700D02*
X148583333Y-104116033D01*
X131749999Y-102716033D02*
X131516666Y-102382700D01*
X131349999Y-102716033D02*
X131349999Y-102016033D01*
X131349999Y-102016033D02*
X131616666Y-102016033D01*
X131616666Y-102016033D02*
X131683333Y-102049366D01*
X131683333Y-102049366D02*
X131716666Y-102082700D01*
X131716666Y-102082700D02*
X131749999Y-102149366D01*
X131749999Y-102149366D02*
X131749999Y-102249366D01*
X131749999Y-102249366D02*
X131716666Y-102316033D01*
X131716666Y-102316033D02*
X131683333Y-102349366D01*
X131683333Y-102349366D02*
X131616666Y-102382700D01*
X131616666Y-102382700D02*
X131349999Y-102382700D01*
X132416666Y-102716033D02*
X132016666Y-102716033D01*
X132216666Y-102716033D02*
X132216666Y-102016033D01*
X132216666Y-102016033D02*
X132149999Y-102116033D01*
X132149999Y-102116033D02*
X132083333Y-102182700D01*
X132083333Y-102182700D02*
X132016666Y-102216033D01*
X132750000Y-102716033D02*
X132883333Y-102716033D01*
X132883333Y-102716033D02*
X132950000Y-102682700D01*
X132950000Y-102682700D02*
X132983333Y-102649366D01*
X132983333Y-102649366D02*
X133050000Y-102549366D01*
X133050000Y-102549366D02*
X133083333Y-102416033D01*
X133083333Y-102416033D02*
X133083333Y-102149366D01*
X133083333Y-102149366D02*
X133050000Y-102082700D01*
X133050000Y-102082700D02*
X133016666Y-102049366D01*
X133016666Y-102049366D02*
X132950000Y-102016033D01*
X132950000Y-102016033D02*
X132816666Y-102016033D01*
X132816666Y-102016033D02*
X132750000Y-102049366D01*
X132750000Y-102049366D02*
X132716666Y-102082700D01*
X132716666Y-102082700D02*
X132683333Y-102149366D01*
X132683333Y-102149366D02*
X132683333Y-102316033D01*
X132683333Y-102316033D02*
X132716666Y-102382700D01*
X132716666Y-102382700D02*
X132750000Y-102416033D01*
X132750000Y-102416033D02*
X132816666Y-102449366D01*
X132816666Y-102449366D02*
X132950000Y-102449366D01*
X132950000Y-102449366D02*
X133016666Y-102416033D01*
X133016666Y-102416033D02*
X133050000Y-102382700D01*
X133050000Y-102382700D02*
X133083333Y-102316033D01*
X149849999Y-103416033D02*
X149616666Y-103082700D01*
X149449999Y-103416033D02*
X149449999Y-102716033D01*
X149449999Y-102716033D02*
X149716666Y-102716033D01*
X149716666Y-102716033D02*
X149783333Y-102749366D01*
X149783333Y-102749366D02*
X149816666Y-102782700D01*
X149816666Y-102782700D02*
X149849999Y-102849366D01*
X149849999Y-102849366D02*
X149849999Y-102949366D01*
X149849999Y-102949366D02*
X149816666Y-103016033D01*
X149816666Y-103016033D02*
X149783333Y-103049366D01*
X149783333Y-103049366D02*
X149716666Y-103082700D01*
X149716666Y-103082700D02*
X149449999Y-103082700D01*
X150116666Y-102782700D02*
X150149999Y-102749366D01*
X150149999Y-102749366D02*
X150216666Y-102716033D01*
X150216666Y-102716033D02*
X150383333Y-102716033D01*
X150383333Y-102716033D02*
X150449999Y-102749366D01*
X150449999Y-102749366D02*
X150483333Y-102782700D01*
X150483333Y-102782700D02*
X150516666Y-102849366D01*
X150516666Y-102849366D02*
X150516666Y-102916033D01*
X150516666Y-102916033D02*
X150483333Y-103016033D01*
X150483333Y-103016033D02*
X150083333Y-103416033D01*
X150083333Y-103416033D02*
X150516666Y-103416033D01*
X150950000Y-102716033D02*
X151016666Y-102716033D01*
X151016666Y-102716033D02*
X151083333Y-102749366D01*
X151083333Y-102749366D02*
X151116666Y-102782700D01*
X151116666Y-102782700D02*
X151150000Y-102849366D01*
X151150000Y-102849366D02*
X151183333Y-102982700D01*
X151183333Y-102982700D02*
X151183333Y-103149366D01*
X151183333Y-103149366D02*
X151150000Y-103282700D01*
X151150000Y-103282700D02*
X151116666Y-103349366D01*
X151116666Y-103349366D02*
X151083333Y-103382700D01*
X151083333Y-103382700D02*
X151016666Y-103416033D01*
X151016666Y-103416033D02*
X150950000Y-103416033D01*
X150950000Y-103416033D02*
X150883333Y-103382700D01*
X150883333Y-103382700D02*
X150850000Y-103349366D01*
X150850000Y-103349366D02*
X150816666Y-103282700D01*
X150816666Y-103282700D02*
X150783333Y-103149366D01*
X150783333Y-103149366D02*
X150783333Y-102982700D01*
X150783333Y-102982700D02*
X150816666Y-102849366D01*
X150816666Y-102849366D02*
X150850000Y-102782700D01*
X150850000Y-102782700D02*
X150883333Y-102749366D01*
X150883333Y-102749366D02*
X150950000Y-102716033D01*
X179449999Y-71016033D02*
X179216666Y-70682700D01*
X179049999Y-71016033D02*
X179049999Y-70316033D01*
X179049999Y-70316033D02*
X179316666Y-70316033D01*
X179316666Y-70316033D02*
X179383333Y-70349366D01*
X179383333Y-70349366D02*
X179416666Y-70382700D01*
X179416666Y-70382700D02*
X179449999Y-70449366D01*
X179449999Y-70449366D02*
X179449999Y-70549366D01*
X179449999Y-70549366D02*
X179416666Y-70616033D01*
X179416666Y-70616033D02*
X179383333Y-70649366D01*
X179383333Y-70649366D02*
X179316666Y-70682700D01*
X179316666Y-70682700D02*
X179049999Y-70682700D01*
X179683333Y-70316033D02*
X180116666Y-70316033D01*
X180116666Y-70316033D02*
X179883333Y-70582700D01*
X179883333Y-70582700D02*
X179983333Y-70582700D01*
X179983333Y-70582700D02*
X180049999Y-70616033D01*
X180049999Y-70616033D02*
X180083333Y-70649366D01*
X180083333Y-70649366D02*
X180116666Y-70716033D01*
X180116666Y-70716033D02*
X180116666Y-70882700D01*
X180116666Y-70882700D02*
X180083333Y-70949366D01*
X180083333Y-70949366D02*
X180049999Y-70982700D01*
X180049999Y-70982700D02*
X179983333Y-71016033D01*
X179983333Y-71016033D02*
X179783333Y-71016033D01*
X179783333Y-71016033D02*
X179716666Y-70982700D01*
X179716666Y-70982700D02*
X179683333Y-70949366D01*
X180516666Y-70616033D02*
X180450000Y-70582700D01*
X180450000Y-70582700D02*
X180416666Y-70549366D01*
X180416666Y-70549366D02*
X180383333Y-70482700D01*
X180383333Y-70482700D02*
X180383333Y-70449366D01*
X180383333Y-70449366D02*
X180416666Y-70382700D01*
X180416666Y-70382700D02*
X180450000Y-70349366D01*
X180450000Y-70349366D02*
X180516666Y-70316033D01*
X180516666Y-70316033D02*
X180650000Y-70316033D01*
X180650000Y-70316033D02*
X180716666Y-70349366D01*
X180716666Y-70349366D02*
X180750000Y-70382700D01*
X180750000Y-70382700D02*
X180783333Y-70449366D01*
X180783333Y-70449366D02*
X180783333Y-70482700D01*
X180783333Y-70482700D02*
X180750000Y-70549366D01*
X180750000Y-70549366D02*
X180716666Y-70582700D01*
X180716666Y-70582700D02*
X180650000Y-70616033D01*
X180650000Y-70616033D02*
X180516666Y-70616033D01*
X180516666Y-70616033D02*
X180450000Y-70649366D01*
X180450000Y-70649366D02*
X180416666Y-70682700D01*
X180416666Y-70682700D02*
X180383333Y-70749366D01*
X180383333Y-70749366D02*
X180383333Y-70882700D01*
X180383333Y-70882700D02*
X180416666Y-70949366D01*
X180416666Y-70949366D02*
X180450000Y-70982700D01*
X180450000Y-70982700D02*
X180516666Y-71016033D01*
X180516666Y-71016033D02*
X180650000Y-71016033D01*
X180650000Y-71016033D02*
X180716666Y-70982700D01*
X180716666Y-70982700D02*
X180750000Y-70949366D01*
X180750000Y-70949366D02*
X180783333Y-70882700D01*
X180783333Y-70882700D02*
X180783333Y-70749366D01*
X180783333Y-70749366D02*
X180750000Y-70682700D01*
X180750000Y-70682700D02*
X180716666Y-70649366D01*
X180716666Y-70649366D02*
X180650000Y-70616033D01*
X195349999Y-72916033D02*
X195116666Y-72582700D01*
X194949999Y-72916033D02*
X194949999Y-72216033D01*
X194949999Y-72216033D02*
X195216666Y-72216033D01*
X195216666Y-72216033D02*
X195283333Y-72249366D01*
X195283333Y-72249366D02*
X195316666Y-72282700D01*
X195316666Y-72282700D02*
X195349999Y-72349366D01*
X195349999Y-72349366D02*
X195349999Y-72449366D01*
X195349999Y-72449366D02*
X195316666Y-72516033D01*
X195316666Y-72516033D02*
X195283333Y-72549366D01*
X195283333Y-72549366D02*
X195216666Y-72582700D01*
X195216666Y-72582700D02*
X194949999Y-72582700D01*
X195583333Y-72216033D02*
X196016666Y-72216033D01*
X196016666Y-72216033D02*
X195783333Y-72482700D01*
X195783333Y-72482700D02*
X195883333Y-72482700D01*
X195883333Y-72482700D02*
X195949999Y-72516033D01*
X195949999Y-72516033D02*
X195983333Y-72549366D01*
X195983333Y-72549366D02*
X196016666Y-72616033D01*
X196016666Y-72616033D02*
X196016666Y-72782700D01*
X196016666Y-72782700D02*
X195983333Y-72849366D01*
X195983333Y-72849366D02*
X195949999Y-72882700D01*
X195949999Y-72882700D02*
X195883333Y-72916033D01*
X195883333Y-72916033D02*
X195683333Y-72916033D01*
X195683333Y-72916033D02*
X195616666Y-72882700D01*
X195616666Y-72882700D02*
X195583333Y-72849366D01*
X196616666Y-72216033D02*
X196483333Y-72216033D01*
X196483333Y-72216033D02*
X196416666Y-72249366D01*
X196416666Y-72249366D02*
X196383333Y-72282700D01*
X196383333Y-72282700D02*
X196316666Y-72382700D01*
X196316666Y-72382700D02*
X196283333Y-72516033D01*
X196283333Y-72516033D02*
X196283333Y-72782700D01*
X196283333Y-72782700D02*
X196316666Y-72849366D01*
X196316666Y-72849366D02*
X196350000Y-72882700D01*
X196350000Y-72882700D02*
X196416666Y-72916033D01*
X196416666Y-72916033D02*
X196550000Y-72916033D01*
X196550000Y-72916033D02*
X196616666Y-72882700D01*
X196616666Y-72882700D02*
X196650000Y-72849366D01*
X196650000Y-72849366D02*
X196683333Y-72782700D01*
X196683333Y-72782700D02*
X196683333Y-72616033D01*
X196683333Y-72616033D02*
X196650000Y-72549366D01*
X196650000Y-72549366D02*
X196616666Y-72516033D01*
X196616666Y-72516033D02*
X196550000Y-72482700D01*
X196550000Y-72482700D02*
X196416666Y-72482700D01*
X196416666Y-72482700D02*
X196350000Y-72516033D01*
X196350000Y-72516033D02*
X196316666Y-72549366D01*
X196316666Y-72549366D02*
X196283333Y-72616033D01*
X115238095Y-56604819D02*
X115238095Y-55604819D01*
X115238095Y-56081009D02*
X115809523Y-56081009D01*
X115809523Y-56604819D02*
X115809523Y-55604819D01*
X116190476Y-55604819D02*
X116857142Y-55604819D01*
X116857142Y-55604819D02*
X116428571Y-56604819D01*
X99783333Y-102316033D02*
X99550000Y-101982700D01*
X99383333Y-102316033D02*
X99383333Y-101616033D01*
X99383333Y-101616033D02*
X99650000Y-101616033D01*
X99650000Y-101616033D02*
X99716667Y-101649366D01*
X99716667Y-101649366D02*
X99750000Y-101682700D01*
X99750000Y-101682700D02*
X99783333Y-101749366D01*
X99783333Y-101749366D02*
X99783333Y-101849366D01*
X99783333Y-101849366D02*
X99750000Y-101916033D01*
X99750000Y-101916033D02*
X99716667Y-101949366D01*
X99716667Y-101949366D02*
X99650000Y-101982700D01*
X99650000Y-101982700D02*
X99383333Y-101982700D01*
X100183333Y-101916033D02*
X100116667Y-101882700D01*
X100116667Y-101882700D02*
X100083333Y-101849366D01*
X100083333Y-101849366D02*
X100050000Y-101782700D01*
X100050000Y-101782700D02*
X100050000Y-101749366D01*
X100050000Y-101749366D02*
X100083333Y-101682700D01*
X100083333Y-101682700D02*
X100116667Y-101649366D01*
X100116667Y-101649366D02*
X100183333Y-101616033D01*
X100183333Y-101616033D02*
X100316667Y-101616033D01*
X100316667Y-101616033D02*
X100383333Y-101649366D01*
X100383333Y-101649366D02*
X100416667Y-101682700D01*
X100416667Y-101682700D02*
X100450000Y-101749366D01*
X100450000Y-101749366D02*
X100450000Y-101782700D01*
X100450000Y-101782700D02*
X100416667Y-101849366D01*
X100416667Y-101849366D02*
X100383333Y-101882700D01*
X100383333Y-101882700D02*
X100316667Y-101916033D01*
X100316667Y-101916033D02*
X100183333Y-101916033D01*
X100183333Y-101916033D02*
X100116667Y-101949366D01*
X100116667Y-101949366D02*
X100083333Y-101982700D01*
X100083333Y-101982700D02*
X100050000Y-102049366D01*
X100050000Y-102049366D02*
X100050000Y-102182700D01*
X100050000Y-102182700D02*
X100083333Y-102249366D01*
X100083333Y-102249366D02*
X100116667Y-102282700D01*
X100116667Y-102282700D02*
X100183333Y-102316033D01*
X100183333Y-102316033D02*
X100316667Y-102316033D01*
X100316667Y-102316033D02*
X100383333Y-102282700D01*
X100383333Y-102282700D02*
X100416667Y-102249366D01*
X100416667Y-102249366D02*
X100450000Y-102182700D01*
X100450000Y-102182700D02*
X100450000Y-102049366D01*
X100450000Y-102049366D02*
X100416667Y-101982700D01*
X100416667Y-101982700D02*
X100383333Y-101949366D01*
X100383333Y-101949366D02*
X100316667Y-101916033D01*
X99949999Y-70716034D02*
X99716666Y-70382701D01*
X99549999Y-70716034D02*
X99549999Y-70016034D01*
X99549999Y-70016034D02*
X99816666Y-70016034D01*
X99816666Y-70016034D02*
X99883333Y-70049367D01*
X99883333Y-70049367D02*
X99916666Y-70082701D01*
X99916666Y-70082701D02*
X99949999Y-70149367D01*
X99949999Y-70149367D02*
X99949999Y-70249367D01*
X99949999Y-70249367D02*
X99916666Y-70316034D01*
X99916666Y-70316034D02*
X99883333Y-70349367D01*
X99883333Y-70349367D02*
X99816666Y-70382701D01*
X99816666Y-70382701D02*
X99549999Y-70382701D01*
X100583333Y-70016034D02*
X100249999Y-70016034D01*
X100249999Y-70016034D02*
X100216666Y-70349367D01*
X100216666Y-70349367D02*
X100249999Y-70316034D01*
X100249999Y-70316034D02*
X100316666Y-70282701D01*
X100316666Y-70282701D02*
X100483333Y-70282701D01*
X100483333Y-70282701D02*
X100549999Y-70316034D01*
X100549999Y-70316034D02*
X100583333Y-70349367D01*
X100583333Y-70349367D02*
X100616666Y-70416034D01*
X100616666Y-70416034D02*
X100616666Y-70582701D01*
X100616666Y-70582701D02*
X100583333Y-70649367D01*
X100583333Y-70649367D02*
X100549999Y-70682701D01*
X100549999Y-70682701D02*
X100483333Y-70716034D01*
X100483333Y-70716034D02*
X100316666Y-70716034D01*
X100316666Y-70716034D02*
X100249999Y-70682701D01*
X100249999Y-70682701D02*
X100216666Y-70649367D01*
X101216666Y-70249367D02*
X101216666Y-70716034D01*
X101050000Y-69982701D02*
X100883333Y-70482701D01*
X100883333Y-70482701D02*
X101316666Y-70482701D01*
X143073332Y-76955966D02*
X143073332Y-76389300D01*
X143073332Y-76389300D02*
X143039999Y-76322633D01*
X143039999Y-76322633D02*
X143006665Y-76289300D01*
X143006665Y-76289300D02*
X142939999Y-76255966D01*
X142939999Y-76255966D02*
X142806665Y-76255966D01*
X142806665Y-76255966D02*
X142739999Y-76289300D01*
X142739999Y-76289300D02*
X142706665Y-76322633D01*
X142706665Y-76322633D02*
X142673332Y-76389300D01*
X142673332Y-76389300D02*
X142673332Y-76955966D01*
X142239999Y-76655966D02*
X142306666Y-76689300D01*
X142306666Y-76689300D02*
X142339999Y-76722633D01*
X142339999Y-76722633D02*
X142373332Y-76789300D01*
X142373332Y-76789300D02*
X142373332Y-76822633D01*
X142373332Y-76822633D02*
X142339999Y-76889300D01*
X142339999Y-76889300D02*
X142306666Y-76922633D01*
X142306666Y-76922633D02*
X142239999Y-76955966D01*
X142239999Y-76955966D02*
X142106666Y-76955966D01*
X142106666Y-76955966D02*
X142039999Y-76922633D01*
X142039999Y-76922633D02*
X142006666Y-76889300D01*
X142006666Y-76889300D02*
X141973332Y-76822633D01*
X141973332Y-76822633D02*
X141973332Y-76789300D01*
X141973332Y-76789300D02*
X142006666Y-76722633D01*
X142006666Y-76722633D02*
X142039999Y-76689300D01*
X142039999Y-76689300D02*
X142106666Y-76655966D01*
X142106666Y-76655966D02*
X142239999Y-76655966D01*
X142239999Y-76655966D02*
X142306666Y-76622633D01*
X142306666Y-76622633D02*
X142339999Y-76589300D01*
X142339999Y-76589300D02*
X142373332Y-76522633D01*
X142373332Y-76522633D02*
X142373332Y-76389300D01*
X142373332Y-76389300D02*
X142339999Y-76322633D01*
X142339999Y-76322633D02*
X142306666Y-76289300D01*
X142306666Y-76289300D02*
X142239999Y-76255966D01*
X142239999Y-76255966D02*
X142106666Y-76255966D01*
X142106666Y-76255966D02*
X142039999Y-76289300D01*
X142039999Y-76289300D02*
X142006666Y-76322633D01*
X142006666Y-76322633D02*
X141973332Y-76389300D01*
X141973332Y-76389300D02*
X141973332Y-76522633D01*
X141973332Y-76522633D02*
X142006666Y-76589300D01*
X142006666Y-76589300D02*
X142039999Y-76622633D01*
X142039999Y-76622633D02*
X142106666Y-76655966D01*
X155449999Y-71016033D02*
X155216666Y-70682700D01*
X155049999Y-71016033D02*
X155049999Y-70316033D01*
X155049999Y-70316033D02*
X155316666Y-70316033D01*
X155316666Y-70316033D02*
X155383333Y-70349366D01*
X155383333Y-70349366D02*
X155416666Y-70382700D01*
X155416666Y-70382700D02*
X155449999Y-70449366D01*
X155449999Y-70449366D02*
X155449999Y-70549366D01*
X155449999Y-70549366D02*
X155416666Y-70616033D01*
X155416666Y-70616033D02*
X155383333Y-70649366D01*
X155383333Y-70649366D02*
X155316666Y-70682700D01*
X155316666Y-70682700D02*
X155049999Y-70682700D01*
X156116666Y-71016033D02*
X155716666Y-71016033D01*
X155916666Y-71016033D02*
X155916666Y-70316033D01*
X155916666Y-70316033D02*
X155849999Y-70416033D01*
X155849999Y-70416033D02*
X155783333Y-70482700D01*
X155783333Y-70482700D02*
X155716666Y-70516033D01*
X156716666Y-70316033D02*
X156583333Y-70316033D01*
X156583333Y-70316033D02*
X156516666Y-70349366D01*
X156516666Y-70349366D02*
X156483333Y-70382700D01*
X156483333Y-70382700D02*
X156416666Y-70482700D01*
X156416666Y-70482700D02*
X156383333Y-70616033D01*
X156383333Y-70616033D02*
X156383333Y-70882700D01*
X156383333Y-70882700D02*
X156416666Y-70949366D01*
X156416666Y-70949366D02*
X156450000Y-70982700D01*
X156450000Y-70982700D02*
X156516666Y-71016033D01*
X156516666Y-71016033D02*
X156650000Y-71016033D01*
X156650000Y-71016033D02*
X156716666Y-70982700D01*
X156716666Y-70982700D02*
X156750000Y-70949366D01*
X156750000Y-70949366D02*
X156783333Y-70882700D01*
X156783333Y-70882700D02*
X156783333Y-70716033D01*
X156783333Y-70716033D02*
X156750000Y-70649366D01*
X156750000Y-70649366D02*
X156716666Y-70616033D01*
X156716666Y-70616033D02*
X156650000Y-70582700D01*
X156650000Y-70582700D02*
X156516666Y-70582700D01*
X156516666Y-70582700D02*
X156450000Y-70616033D01*
X156450000Y-70616033D02*
X156416666Y-70649366D01*
X156416666Y-70649366D02*
X156383333Y-70716033D01*
X99649999Y-104616033D02*
X99416666Y-104282700D01*
X99249999Y-104616033D02*
X99249999Y-103916033D01*
X99249999Y-103916033D02*
X99516666Y-103916033D01*
X99516666Y-103916033D02*
X99583333Y-103949366D01*
X99583333Y-103949366D02*
X99616666Y-103982700D01*
X99616666Y-103982700D02*
X99649999Y-104049366D01*
X99649999Y-104049366D02*
X99649999Y-104149366D01*
X99649999Y-104149366D02*
X99616666Y-104216033D01*
X99616666Y-104216033D02*
X99583333Y-104249366D01*
X99583333Y-104249366D02*
X99516666Y-104282700D01*
X99516666Y-104282700D02*
X99249999Y-104282700D01*
X100316666Y-104616033D02*
X99916666Y-104616033D01*
X100116666Y-104616033D02*
X100116666Y-103916033D01*
X100116666Y-103916033D02*
X100049999Y-104016033D01*
X100049999Y-104016033D02*
X99983333Y-104082700D01*
X99983333Y-104082700D02*
X99916666Y-104116033D01*
X100983333Y-104616033D02*
X100583333Y-104616033D01*
X100783333Y-104616033D02*
X100783333Y-103916033D01*
X100783333Y-103916033D02*
X100716666Y-104016033D01*
X100716666Y-104016033D02*
X100650000Y-104082700D01*
X100650000Y-104082700D02*
X100583333Y-104116033D01*
X110983095Y-118295819D02*
X110983095Y-117295819D01*
X110983095Y-117772009D02*
X111554523Y-117772009D01*
X111554523Y-118295819D02*
X111554523Y-117295819D01*
X112078333Y-118295819D02*
X112268809Y-118295819D01*
X112268809Y-118295819D02*
X112364047Y-118248200D01*
X112364047Y-118248200D02*
X112411666Y-118200580D01*
X112411666Y-118200580D02*
X112506904Y-118057723D01*
X112506904Y-118057723D02*
X112554523Y-117867247D01*
X112554523Y-117867247D02*
X112554523Y-117486295D01*
X112554523Y-117486295D02*
X112506904Y-117391057D01*
X112506904Y-117391057D02*
X112459285Y-117343438D01*
X112459285Y-117343438D02*
X112364047Y-117295819D01*
X112364047Y-117295819D02*
X112173571Y-117295819D01*
X112173571Y-117295819D02*
X112078333Y-117343438D01*
X112078333Y-117343438D02*
X112030714Y-117391057D01*
X112030714Y-117391057D02*
X111983095Y-117486295D01*
X111983095Y-117486295D02*
X111983095Y-117724390D01*
X111983095Y-117724390D02*
X112030714Y-117819628D01*
X112030714Y-117819628D02*
X112078333Y-117867247D01*
X112078333Y-117867247D02*
X112173571Y-117914866D01*
X112173571Y-117914866D02*
X112364047Y-117914866D01*
X112364047Y-117914866D02*
X112459285Y-117867247D01*
X112459285Y-117867247D02*
X112506904Y-117819628D01*
X112506904Y-117819628D02*
X112554523Y-117724390D01*
X162024819Y-88785713D02*
X162024819Y-88214285D01*
X163024819Y-88499999D02*
X162024819Y-88499999D01*
X163024819Y-87880951D02*
X162024819Y-87880951D01*
X162501009Y-87880951D02*
X162501009Y-87309523D01*
X163024819Y-87309523D02*
X162024819Y-87309523D01*
X162120057Y-86880951D02*
X162072438Y-86833332D01*
X162072438Y-86833332D02*
X162024819Y-86738094D01*
X162024819Y-86738094D02*
X162024819Y-86499999D01*
X162024819Y-86499999D02*
X162072438Y-86404761D01*
X162072438Y-86404761D02*
X162120057Y-86357142D01*
X162120057Y-86357142D02*
X162215295Y-86309523D01*
X162215295Y-86309523D02*
X162310533Y-86309523D01*
X162310533Y-86309523D02*
X162453390Y-86357142D01*
X162453390Y-86357142D02*
X163024819Y-86928570D01*
X163024819Y-86928570D02*
X163024819Y-86309523D01*
X95406665Y-76955966D02*
X95406665Y-76389300D01*
X95406665Y-76389300D02*
X95373332Y-76322633D01*
X95373332Y-76322633D02*
X95339998Y-76289300D01*
X95339998Y-76289300D02*
X95273332Y-76255966D01*
X95273332Y-76255966D02*
X95139998Y-76255966D01*
X95139998Y-76255966D02*
X95073332Y-76289300D01*
X95073332Y-76289300D02*
X95039998Y-76322633D01*
X95039998Y-76322633D02*
X95006665Y-76389300D01*
X95006665Y-76389300D02*
X95006665Y-76955966D01*
X94306665Y-76255966D02*
X94706665Y-76255966D01*
X94506665Y-76255966D02*
X94506665Y-76955966D01*
X94506665Y-76955966D02*
X94573332Y-76855966D01*
X94573332Y-76855966D02*
X94639999Y-76789300D01*
X94639999Y-76789300D02*
X94706665Y-76755966D01*
X94073332Y-76955966D02*
X93639998Y-76955966D01*
X93639998Y-76955966D02*
X93873332Y-76689300D01*
X93873332Y-76689300D02*
X93773332Y-76689300D01*
X93773332Y-76689300D02*
X93706665Y-76655966D01*
X93706665Y-76655966D02*
X93673332Y-76622633D01*
X93673332Y-76622633D02*
X93639998Y-76555966D01*
X93639998Y-76555966D02*
X93639998Y-76389300D01*
X93639998Y-76389300D02*
X93673332Y-76322633D01*
X93673332Y-76322633D02*
X93706665Y-76289300D01*
X93706665Y-76289300D02*
X93773332Y-76255966D01*
X93773332Y-76255966D02*
X93973332Y-76255966D01*
X93973332Y-76255966D02*
X94039998Y-76289300D01*
X94039998Y-76289300D02*
X94073332Y-76322633D01*
X197849999Y-103416033D02*
X197616666Y-103082700D01*
X197449999Y-103416033D02*
X197449999Y-102716033D01*
X197449999Y-102716033D02*
X197716666Y-102716033D01*
X197716666Y-102716033D02*
X197783333Y-102749366D01*
X197783333Y-102749366D02*
X197816666Y-102782700D01*
X197816666Y-102782700D02*
X197849999Y-102849366D01*
X197849999Y-102849366D02*
X197849999Y-102949366D01*
X197849999Y-102949366D02*
X197816666Y-103016033D01*
X197816666Y-103016033D02*
X197783333Y-103049366D01*
X197783333Y-103049366D02*
X197716666Y-103082700D01*
X197716666Y-103082700D02*
X197449999Y-103082700D01*
X198449999Y-102949366D02*
X198449999Y-103416033D01*
X198283333Y-102682700D02*
X198116666Y-103182700D01*
X198116666Y-103182700D02*
X198549999Y-103182700D01*
X198750000Y-102716033D02*
X199216666Y-102716033D01*
X199216666Y-102716033D02*
X198916666Y-103416033D01*
X134977095Y-118295819D02*
X134977095Y-117295819D01*
X134977095Y-117772009D02*
X135548523Y-117772009D01*
X135548523Y-118295819D02*
X135548523Y-117295819D01*
X136500904Y-117295819D02*
X136024714Y-117295819D01*
X136024714Y-117295819D02*
X135977095Y-117772009D01*
X135977095Y-117772009D02*
X136024714Y-117724390D01*
X136024714Y-117724390D02*
X136119952Y-117676771D01*
X136119952Y-117676771D02*
X136358047Y-117676771D01*
X136358047Y-117676771D02*
X136453285Y-117724390D01*
X136453285Y-117724390D02*
X136500904Y-117772009D01*
X136500904Y-117772009D02*
X136548523Y-117867247D01*
X136548523Y-117867247D02*
X136548523Y-118105342D01*
X136548523Y-118105342D02*
X136500904Y-118200580D01*
X136500904Y-118200580D02*
X136453285Y-118248200D01*
X136453285Y-118248200D02*
X136358047Y-118295819D01*
X136358047Y-118295819D02*
X136119952Y-118295819D01*
X136119952Y-118295819D02*
X136024714Y-118248200D01*
X136024714Y-118248200D02*
X135977095Y-118200580D01*
X147449999Y-102316033D02*
X147216666Y-101982700D01*
X147049999Y-102316033D02*
X147049999Y-101616033D01*
X147049999Y-101616033D02*
X147316666Y-101616033D01*
X147316666Y-101616033D02*
X147383333Y-101649366D01*
X147383333Y-101649366D02*
X147416666Y-101682700D01*
X147416666Y-101682700D02*
X147449999Y-101749366D01*
X147449999Y-101749366D02*
X147449999Y-101849366D01*
X147449999Y-101849366D02*
X147416666Y-101916033D01*
X147416666Y-101916033D02*
X147383333Y-101949366D01*
X147383333Y-101949366D02*
X147316666Y-101982700D01*
X147316666Y-101982700D02*
X147049999Y-101982700D01*
X148116666Y-102316033D02*
X147716666Y-102316033D01*
X147916666Y-102316033D02*
X147916666Y-101616033D01*
X147916666Y-101616033D02*
X147849999Y-101716033D01*
X147849999Y-101716033D02*
X147783333Y-101782700D01*
X147783333Y-101782700D02*
X147716666Y-101816033D01*
X148516666Y-101916033D02*
X148450000Y-101882700D01*
X148450000Y-101882700D02*
X148416666Y-101849366D01*
X148416666Y-101849366D02*
X148383333Y-101782700D01*
X148383333Y-101782700D02*
X148383333Y-101749366D01*
X148383333Y-101749366D02*
X148416666Y-101682700D01*
X148416666Y-101682700D02*
X148450000Y-101649366D01*
X148450000Y-101649366D02*
X148516666Y-101616033D01*
X148516666Y-101616033D02*
X148650000Y-101616033D01*
X148650000Y-101616033D02*
X148716666Y-101649366D01*
X148716666Y-101649366D02*
X148750000Y-101682700D01*
X148750000Y-101682700D02*
X148783333Y-101749366D01*
X148783333Y-101749366D02*
X148783333Y-101782700D01*
X148783333Y-101782700D02*
X148750000Y-101849366D01*
X148750000Y-101849366D02*
X148716666Y-101882700D01*
X148716666Y-101882700D02*
X148650000Y-101916033D01*
X148650000Y-101916033D02*
X148516666Y-101916033D01*
X148516666Y-101916033D02*
X148450000Y-101949366D01*
X148450000Y-101949366D02*
X148416666Y-101982700D01*
X148416666Y-101982700D02*
X148383333Y-102049366D01*
X148383333Y-102049366D02*
X148383333Y-102182700D01*
X148383333Y-102182700D02*
X148416666Y-102249366D01*
X148416666Y-102249366D02*
X148450000Y-102282700D01*
X148450000Y-102282700D02*
X148516666Y-102316033D01*
X148516666Y-102316033D02*
X148650000Y-102316033D01*
X148650000Y-102316033D02*
X148716666Y-102282700D01*
X148716666Y-102282700D02*
X148750000Y-102249366D01*
X148750000Y-102249366D02*
X148783333Y-102182700D01*
X148783333Y-102182700D02*
X148783333Y-102049366D01*
X148783333Y-102049366D02*
X148750000Y-101982700D01*
X148750000Y-101982700D02*
X148716666Y-101949366D01*
X148716666Y-101949366D02*
X148650000Y-101916033D01*
X158506905Y-118295819D02*
X158506905Y-117295819D01*
X158506905Y-117772009D02*
X159078333Y-117772009D01*
X159078333Y-118295819D02*
X159078333Y-117295819D01*
X160078333Y-118295819D02*
X159506905Y-118295819D01*
X159792619Y-118295819D02*
X159792619Y-117295819D01*
X159792619Y-117295819D02*
X159697381Y-117438676D01*
X159697381Y-117438676D02*
X159602143Y-117533914D01*
X159602143Y-117533914D02*
X159506905Y-117581533D01*
X160697381Y-117295819D02*
X160792619Y-117295819D01*
X160792619Y-117295819D02*
X160887857Y-117343438D01*
X160887857Y-117343438D02*
X160935476Y-117391057D01*
X160935476Y-117391057D02*
X160983095Y-117486295D01*
X160983095Y-117486295D02*
X161030714Y-117676771D01*
X161030714Y-117676771D02*
X161030714Y-117914866D01*
X161030714Y-117914866D02*
X160983095Y-118105342D01*
X160983095Y-118105342D02*
X160935476Y-118200580D01*
X160935476Y-118200580D02*
X160887857Y-118248200D01*
X160887857Y-118248200D02*
X160792619Y-118295819D01*
X160792619Y-118295819D02*
X160697381Y-118295819D01*
X160697381Y-118295819D02*
X160602143Y-118248200D01*
X160602143Y-118248200D02*
X160554524Y-118200580D01*
X160554524Y-118200580D02*
X160506905Y-118105342D01*
X160506905Y-118105342D02*
X160459286Y-117914866D01*
X160459286Y-117914866D02*
X160459286Y-117676771D01*
X160459286Y-117676771D02*
X160506905Y-117486295D01*
X160506905Y-117486295D02*
X160554524Y-117391057D01*
X160554524Y-117391057D02*
X160602143Y-117343438D01*
X160602143Y-117343438D02*
X160697381Y-117295819D01*
X70383333Y-88816033D02*
X70150000Y-88482700D01*
X69983333Y-88816033D02*
X69983333Y-88116033D01*
X69983333Y-88116033D02*
X70250000Y-88116033D01*
X70250000Y-88116033D02*
X70316667Y-88149366D01*
X70316667Y-88149366D02*
X70350000Y-88182700D01*
X70350000Y-88182700D02*
X70383333Y-88249366D01*
X70383333Y-88249366D02*
X70383333Y-88349366D01*
X70383333Y-88349366D02*
X70350000Y-88416033D01*
X70350000Y-88416033D02*
X70316667Y-88449366D01*
X70316667Y-88449366D02*
X70250000Y-88482700D01*
X70250000Y-88482700D02*
X69983333Y-88482700D01*
X70650000Y-88182700D02*
X70683333Y-88149366D01*
X70683333Y-88149366D02*
X70750000Y-88116033D01*
X70750000Y-88116033D02*
X70916667Y-88116033D01*
X70916667Y-88116033D02*
X70983333Y-88149366D01*
X70983333Y-88149366D02*
X71016667Y-88182700D01*
X71016667Y-88182700D02*
X71050000Y-88249366D01*
X71050000Y-88249366D02*
X71050000Y-88316033D01*
X71050000Y-88316033D02*
X71016667Y-88416033D01*
X71016667Y-88416033D02*
X70616667Y-88816033D01*
X70616667Y-88816033D02*
X71050000Y-88816033D01*
X147949999Y-70716034D02*
X147716666Y-70382701D01*
X147549999Y-70716034D02*
X147549999Y-70016034D01*
X147549999Y-70016034D02*
X147816666Y-70016034D01*
X147816666Y-70016034D02*
X147883333Y-70049367D01*
X147883333Y-70049367D02*
X147916666Y-70082701D01*
X147916666Y-70082701D02*
X147949999Y-70149367D01*
X147949999Y-70149367D02*
X147949999Y-70249367D01*
X147949999Y-70249367D02*
X147916666Y-70316034D01*
X147916666Y-70316034D02*
X147883333Y-70349367D01*
X147883333Y-70349367D02*
X147816666Y-70382701D01*
X147816666Y-70382701D02*
X147549999Y-70382701D01*
X148216666Y-70082701D02*
X148249999Y-70049367D01*
X148249999Y-70049367D02*
X148316666Y-70016034D01*
X148316666Y-70016034D02*
X148483333Y-70016034D01*
X148483333Y-70016034D02*
X148549999Y-70049367D01*
X148549999Y-70049367D02*
X148583333Y-70082701D01*
X148583333Y-70082701D02*
X148616666Y-70149367D01*
X148616666Y-70149367D02*
X148616666Y-70216034D01*
X148616666Y-70216034D02*
X148583333Y-70316034D01*
X148583333Y-70316034D02*
X148183333Y-70716034D01*
X148183333Y-70716034D02*
X148616666Y-70716034D01*
X148850000Y-70016034D02*
X149316666Y-70016034D01*
X149316666Y-70016034D02*
X149016666Y-70716034D01*
X171649999Y-104616033D02*
X171416666Y-104282700D01*
X171249999Y-104616033D02*
X171249999Y-103916033D01*
X171249999Y-103916033D02*
X171516666Y-103916033D01*
X171516666Y-103916033D02*
X171583333Y-103949366D01*
X171583333Y-103949366D02*
X171616666Y-103982700D01*
X171616666Y-103982700D02*
X171649999Y-104049366D01*
X171649999Y-104049366D02*
X171649999Y-104149366D01*
X171649999Y-104149366D02*
X171616666Y-104216033D01*
X171616666Y-104216033D02*
X171583333Y-104249366D01*
X171583333Y-104249366D02*
X171516666Y-104282700D01*
X171516666Y-104282700D02*
X171249999Y-104282700D01*
X171883333Y-103916033D02*
X172316666Y-103916033D01*
X172316666Y-103916033D02*
X172083333Y-104182700D01*
X172083333Y-104182700D02*
X172183333Y-104182700D01*
X172183333Y-104182700D02*
X172249999Y-104216033D01*
X172249999Y-104216033D02*
X172283333Y-104249366D01*
X172283333Y-104249366D02*
X172316666Y-104316033D01*
X172316666Y-104316033D02*
X172316666Y-104482700D01*
X172316666Y-104482700D02*
X172283333Y-104549366D01*
X172283333Y-104549366D02*
X172249999Y-104582700D01*
X172249999Y-104582700D02*
X172183333Y-104616033D01*
X172183333Y-104616033D02*
X171983333Y-104616033D01*
X171983333Y-104616033D02*
X171916666Y-104582700D01*
X171916666Y-104582700D02*
X171883333Y-104549366D01*
X172550000Y-103916033D02*
X172983333Y-103916033D01*
X172983333Y-103916033D02*
X172750000Y-104182700D01*
X172750000Y-104182700D02*
X172850000Y-104182700D01*
X172850000Y-104182700D02*
X172916666Y-104216033D01*
X172916666Y-104216033D02*
X172950000Y-104249366D01*
X172950000Y-104249366D02*
X172983333Y-104316033D01*
X172983333Y-104316033D02*
X172983333Y-104482700D01*
X172983333Y-104482700D02*
X172950000Y-104549366D01*
X172950000Y-104549366D02*
X172916666Y-104582700D01*
X172916666Y-104582700D02*
X172850000Y-104616033D01*
X172850000Y-104616033D02*
X172650000Y-104616033D01*
X172650000Y-104616033D02*
X172583333Y-104582700D01*
X172583333Y-104582700D02*
X172550000Y-104549366D01*
X108083333Y-102716033D02*
X107850000Y-102382700D01*
X107683333Y-102716033D02*
X107683333Y-102016033D01*
X107683333Y-102016033D02*
X107950000Y-102016033D01*
X107950000Y-102016033D02*
X108016667Y-102049366D01*
X108016667Y-102049366D02*
X108050000Y-102082700D01*
X108050000Y-102082700D02*
X108083333Y-102149366D01*
X108083333Y-102149366D02*
X108083333Y-102249366D01*
X108083333Y-102249366D02*
X108050000Y-102316033D01*
X108050000Y-102316033D02*
X108016667Y-102349366D01*
X108016667Y-102349366D02*
X107950000Y-102382700D01*
X107950000Y-102382700D02*
X107683333Y-102382700D01*
X108683333Y-102249366D02*
X108683333Y-102716033D01*
X108516667Y-101982700D02*
X108350000Y-102482700D01*
X108350000Y-102482700D02*
X108783333Y-102482700D01*
X123349999Y-72916033D02*
X123116666Y-72582700D01*
X122949999Y-72916033D02*
X122949999Y-72216033D01*
X122949999Y-72216033D02*
X123216666Y-72216033D01*
X123216666Y-72216033D02*
X123283333Y-72249366D01*
X123283333Y-72249366D02*
X123316666Y-72282700D01*
X123316666Y-72282700D02*
X123349999Y-72349366D01*
X123349999Y-72349366D02*
X123349999Y-72449366D01*
X123349999Y-72449366D02*
X123316666Y-72516033D01*
X123316666Y-72516033D02*
X123283333Y-72549366D01*
X123283333Y-72549366D02*
X123216666Y-72582700D01*
X123216666Y-72582700D02*
X122949999Y-72582700D01*
X123949999Y-72449366D02*
X123949999Y-72916033D01*
X123783333Y-72182700D02*
X123616666Y-72682700D01*
X123616666Y-72682700D02*
X124049999Y-72682700D01*
X124683333Y-72916033D02*
X124283333Y-72916033D01*
X124483333Y-72916033D02*
X124483333Y-72216033D01*
X124483333Y-72216033D02*
X124416666Y-72316033D01*
X124416666Y-72316033D02*
X124350000Y-72382700D01*
X124350000Y-72382700D02*
X124283333Y-72416033D01*
X99349999Y-72916033D02*
X99116666Y-72582700D01*
X98949999Y-72916033D02*
X98949999Y-72216033D01*
X98949999Y-72216033D02*
X99216666Y-72216033D01*
X99216666Y-72216033D02*
X99283333Y-72249366D01*
X99283333Y-72249366D02*
X99316666Y-72282700D01*
X99316666Y-72282700D02*
X99349999Y-72349366D01*
X99349999Y-72349366D02*
X99349999Y-72449366D01*
X99349999Y-72449366D02*
X99316666Y-72516033D01*
X99316666Y-72516033D02*
X99283333Y-72549366D01*
X99283333Y-72549366D02*
X99216666Y-72582700D01*
X99216666Y-72582700D02*
X98949999Y-72582700D01*
X99983333Y-72216033D02*
X99649999Y-72216033D01*
X99649999Y-72216033D02*
X99616666Y-72549366D01*
X99616666Y-72549366D02*
X99649999Y-72516033D01*
X99649999Y-72516033D02*
X99716666Y-72482700D01*
X99716666Y-72482700D02*
X99883333Y-72482700D01*
X99883333Y-72482700D02*
X99949999Y-72516033D01*
X99949999Y-72516033D02*
X99983333Y-72549366D01*
X99983333Y-72549366D02*
X100016666Y-72616033D01*
X100016666Y-72616033D02*
X100016666Y-72782700D01*
X100016666Y-72782700D02*
X99983333Y-72849366D01*
X99983333Y-72849366D02*
X99949999Y-72882700D01*
X99949999Y-72882700D02*
X99883333Y-72916033D01*
X99883333Y-72916033D02*
X99716666Y-72916033D01*
X99716666Y-72916033D02*
X99649999Y-72882700D01*
X99649999Y-72882700D02*
X99616666Y-72849366D01*
X100683333Y-72916033D02*
X100283333Y-72916033D01*
X100483333Y-72916033D02*
X100483333Y-72216033D01*
X100483333Y-72216033D02*
X100416666Y-72316033D01*
X100416666Y-72316033D02*
X100350000Y-72382700D01*
X100350000Y-72382700D02*
X100283333Y-72416033D01*
X83149999Y-104916033D02*
X82916666Y-104582700D01*
X82749999Y-104916033D02*
X82749999Y-104216033D01*
X82749999Y-104216033D02*
X83016666Y-104216033D01*
X83016666Y-104216033D02*
X83083333Y-104249366D01*
X83083333Y-104249366D02*
X83116666Y-104282700D01*
X83116666Y-104282700D02*
X83149999Y-104349366D01*
X83149999Y-104349366D02*
X83149999Y-104449366D01*
X83149999Y-104449366D02*
X83116666Y-104516033D01*
X83116666Y-104516033D02*
X83083333Y-104549366D01*
X83083333Y-104549366D02*
X83016666Y-104582700D01*
X83016666Y-104582700D02*
X82749999Y-104582700D01*
X83816666Y-104916033D02*
X83416666Y-104916033D01*
X83616666Y-104916033D02*
X83616666Y-104216033D01*
X83616666Y-104216033D02*
X83549999Y-104316033D01*
X83549999Y-104316033D02*
X83483333Y-104382700D01*
X83483333Y-104382700D02*
X83416666Y-104416033D01*
X84083333Y-104282700D02*
X84116666Y-104249366D01*
X84116666Y-104249366D02*
X84183333Y-104216033D01*
X84183333Y-104216033D02*
X84350000Y-104216033D01*
X84350000Y-104216033D02*
X84416666Y-104249366D01*
X84416666Y-104249366D02*
X84450000Y-104282700D01*
X84450000Y-104282700D02*
X84483333Y-104349366D01*
X84483333Y-104349366D02*
X84483333Y-104416033D01*
X84483333Y-104416033D02*
X84450000Y-104516033D01*
X84450000Y-104516033D02*
X84050000Y-104916033D01*
X84050000Y-104916033D02*
X84483333Y-104916033D01*
X153249999Y-72216033D02*
X153016666Y-71882700D01*
X152849999Y-72216033D02*
X152849999Y-71516033D01*
X152849999Y-71516033D02*
X153116666Y-71516033D01*
X153116666Y-71516033D02*
X153183333Y-71549366D01*
X153183333Y-71549366D02*
X153216666Y-71582700D01*
X153216666Y-71582700D02*
X153249999Y-71649366D01*
X153249999Y-71649366D02*
X153249999Y-71749366D01*
X153249999Y-71749366D02*
X153216666Y-71816033D01*
X153216666Y-71816033D02*
X153183333Y-71849366D01*
X153183333Y-71849366D02*
X153116666Y-71882700D01*
X153116666Y-71882700D02*
X152849999Y-71882700D01*
X153916666Y-72216033D02*
X153516666Y-72216033D01*
X153716666Y-72216033D02*
X153716666Y-71516033D01*
X153716666Y-71516033D02*
X153649999Y-71616033D01*
X153649999Y-71616033D02*
X153583333Y-71682700D01*
X153583333Y-71682700D02*
X153516666Y-71716033D01*
X154550000Y-71516033D02*
X154216666Y-71516033D01*
X154216666Y-71516033D02*
X154183333Y-71849366D01*
X154183333Y-71849366D02*
X154216666Y-71816033D01*
X154216666Y-71816033D02*
X154283333Y-71782700D01*
X154283333Y-71782700D02*
X154450000Y-71782700D01*
X154450000Y-71782700D02*
X154516666Y-71816033D01*
X154516666Y-71816033D02*
X154550000Y-71849366D01*
X154550000Y-71849366D02*
X154583333Y-71916033D01*
X154583333Y-71916033D02*
X154583333Y-72082700D01*
X154583333Y-72082700D02*
X154550000Y-72149366D01*
X154550000Y-72149366D02*
X154516666Y-72182700D01*
X154516666Y-72182700D02*
X154450000Y-72216033D01*
X154450000Y-72216033D02*
X154283333Y-72216033D01*
X154283333Y-72216033D02*
X154216666Y-72182700D01*
X154216666Y-72182700D02*
X154183333Y-72149366D01*
X160926666Y-98044033D02*
X160926666Y-98610700D01*
X160926666Y-98610700D02*
X160960000Y-98677366D01*
X160960000Y-98677366D02*
X160993333Y-98710700D01*
X160993333Y-98710700D02*
X161060000Y-98744033D01*
X161060000Y-98744033D02*
X161193333Y-98744033D01*
X161193333Y-98744033D02*
X161260000Y-98710700D01*
X161260000Y-98710700D02*
X161293333Y-98677366D01*
X161293333Y-98677366D02*
X161326666Y-98610700D01*
X161326666Y-98610700D02*
X161326666Y-98044033D01*
X161693333Y-98744033D02*
X161826666Y-98744033D01*
X161826666Y-98744033D02*
X161893333Y-98710700D01*
X161893333Y-98710700D02*
X161926666Y-98677366D01*
X161926666Y-98677366D02*
X161993333Y-98577366D01*
X161993333Y-98577366D02*
X162026666Y-98444033D01*
X162026666Y-98444033D02*
X162026666Y-98177366D01*
X162026666Y-98177366D02*
X161993333Y-98110700D01*
X161993333Y-98110700D02*
X161959999Y-98077366D01*
X161959999Y-98077366D02*
X161893333Y-98044033D01*
X161893333Y-98044033D02*
X161759999Y-98044033D01*
X161759999Y-98044033D02*
X161693333Y-98077366D01*
X161693333Y-98077366D02*
X161659999Y-98110700D01*
X161659999Y-98110700D02*
X161626666Y-98177366D01*
X161626666Y-98177366D02*
X161626666Y-98344033D01*
X161626666Y-98344033D02*
X161659999Y-98410700D01*
X161659999Y-98410700D02*
X161693333Y-98444033D01*
X161693333Y-98444033D02*
X161759999Y-98477366D01*
X161759999Y-98477366D02*
X161893333Y-98477366D01*
X161893333Y-98477366D02*
X161959999Y-98444033D01*
X161959999Y-98444033D02*
X161993333Y-98410700D01*
X161993333Y-98410700D02*
X162026666Y-98344033D01*
X123983333Y-104616033D02*
X123750000Y-104282700D01*
X123583333Y-104616033D02*
X123583333Y-103916033D01*
X123583333Y-103916033D02*
X123850000Y-103916033D01*
X123850000Y-103916033D02*
X123916667Y-103949366D01*
X123916667Y-103949366D02*
X123950000Y-103982700D01*
X123950000Y-103982700D02*
X123983333Y-104049366D01*
X123983333Y-104049366D02*
X123983333Y-104149366D01*
X123983333Y-104149366D02*
X123950000Y-104216033D01*
X123950000Y-104216033D02*
X123916667Y-104249366D01*
X123916667Y-104249366D02*
X123850000Y-104282700D01*
X123850000Y-104282700D02*
X123583333Y-104282700D01*
X124583333Y-103916033D02*
X124450000Y-103916033D01*
X124450000Y-103916033D02*
X124383333Y-103949366D01*
X124383333Y-103949366D02*
X124350000Y-103982700D01*
X124350000Y-103982700D02*
X124283333Y-104082700D01*
X124283333Y-104082700D02*
X124250000Y-104216033D01*
X124250000Y-104216033D02*
X124250000Y-104482700D01*
X124250000Y-104482700D02*
X124283333Y-104549366D01*
X124283333Y-104549366D02*
X124316667Y-104582700D01*
X124316667Y-104582700D02*
X124383333Y-104616033D01*
X124383333Y-104616033D02*
X124516667Y-104616033D01*
X124516667Y-104616033D02*
X124583333Y-104582700D01*
X124583333Y-104582700D02*
X124616667Y-104549366D01*
X124616667Y-104549366D02*
X124650000Y-104482700D01*
X124650000Y-104482700D02*
X124650000Y-104316033D01*
X124650000Y-104316033D02*
X124616667Y-104249366D01*
X124616667Y-104249366D02*
X124583333Y-104216033D01*
X124583333Y-104216033D02*
X124516667Y-104182700D01*
X124516667Y-104182700D02*
X124383333Y-104182700D01*
X124383333Y-104182700D02*
X124316667Y-104216033D01*
X124316667Y-104216033D02*
X124283333Y-104249366D01*
X124283333Y-104249366D02*
X124250000Y-104316033D01*
X88926666Y-98044033D02*
X88926666Y-98610700D01*
X88926666Y-98610700D02*
X88960000Y-98677366D01*
X88960000Y-98677366D02*
X88993333Y-98710700D01*
X88993333Y-98710700D02*
X89060000Y-98744033D01*
X89060000Y-98744033D02*
X89193333Y-98744033D01*
X89193333Y-98744033D02*
X89260000Y-98710700D01*
X89260000Y-98710700D02*
X89293333Y-98677366D01*
X89293333Y-98677366D02*
X89326666Y-98610700D01*
X89326666Y-98610700D02*
X89326666Y-98044033D01*
X89993333Y-98044033D02*
X89659999Y-98044033D01*
X89659999Y-98044033D02*
X89626666Y-98377366D01*
X89626666Y-98377366D02*
X89659999Y-98344033D01*
X89659999Y-98344033D02*
X89726666Y-98310700D01*
X89726666Y-98310700D02*
X89893333Y-98310700D01*
X89893333Y-98310700D02*
X89959999Y-98344033D01*
X89959999Y-98344033D02*
X89993333Y-98377366D01*
X89993333Y-98377366D02*
X90026666Y-98444033D01*
X90026666Y-98444033D02*
X90026666Y-98610700D01*
X90026666Y-98610700D02*
X89993333Y-98677366D01*
X89993333Y-98677366D02*
X89959999Y-98710700D01*
X89959999Y-98710700D02*
X89893333Y-98744033D01*
X89893333Y-98744033D02*
X89726666Y-98744033D01*
X89726666Y-98744033D02*
X89659999Y-98710700D01*
X89659999Y-98710700D02*
X89626666Y-98677366D01*
X107483333Y-104916033D02*
X107250000Y-104582700D01*
X107083333Y-104916033D02*
X107083333Y-104216033D01*
X107083333Y-104216033D02*
X107350000Y-104216033D01*
X107350000Y-104216033D02*
X107416667Y-104249366D01*
X107416667Y-104249366D02*
X107450000Y-104282700D01*
X107450000Y-104282700D02*
X107483333Y-104349366D01*
X107483333Y-104349366D02*
X107483333Y-104449366D01*
X107483333Y-104449366D02*
X107450000Y-104516033D01*
X107450000Y-104516033D02*
X107416667Y-104549366D01*
X107416667Y-104549366D02*
X107350000Y-104582700D01*
X107350000Y-104582700D02*
X107083333Y-104582700D01*
X107716667Y-104216033D02*
X108183333Y-104216033D01*
X108183333Y-104216033D02*
X107883333Y-104916033D01*
X195649999Y-104616033D02*
X195416666Y-104282700D01*
X195249999Y-104616033D02*
X195249999Y-103916033D01*
X195249999Y-103916033D02*
X195516666Y-103916033D01*
X195516666Y-103916033D02*
X195583333Y-103949366D01*
X195583333Y-103949366D02*
X195616666Y-103982700D01*
X195616666Y-103982700D02*
X195649999Y-104049366D01*
X195649999Y-104049366D02*
X195649999Y-104149366D01*
X195649999Y-104149366D02*
X195616666Y-104216033D01*
X195616666Y-104216033D02*
X195583333Y-104249366D01*
X195583333Y-104249366D02*
X195516666Y-104282700D01*
X195516666Y-104282700D02*
X195249999Y-104282700D01*
X196249999Y-104149366D02*
X196249999Y-104616033D01*
X196083333Y-103882700D02*
X195916666Y-104382700D01*
X195916666Y-104382700D02*
X196349999Y-104382700D01*
X196716666Y-104216033D02*
X196650000Y-104182700D01*
X196650000Y-104182700D02*
X196616666Y-104149366D01*
X196616666Y-104149366D02*
X196583333Y-104082700D01*
X196583333Y-104082700D02*
X196583333Y-104049366D01*
X196583333Y-104049366D02*
X196616666Y-103982700D01*
X196616666Y-103982700D02*
X196650000Y-103949366D01*
X196650000Y-103949366D02*
X196716666Y-103916033D01*
X196716666Y-103916033D02*
X196850000Y-103916033D01*
X196850000Y-103916033D02*
X196916666Y-103949366D01*
X196916666Y-103949366D02*
X196950000Y-103982700D01*
X196950000Y-103982700D02*
X196983333Y-104049366D01*
X196983333Y-104049366D02*
X196983333Y-104082700D01*
X196983333Y-104082700D02*
X196950000Y-104149366D01*
X196950000Y-104149366D02*
X196916666Y-104182700D01*
X196916666Y-104182700D02*
X196850000Y-104216033D01*
X196850000Y-104216033D02*
X196716666Y-104216033D01*
X196716666Y-104216033D02*
X196650000Y-104249366D01*
X196650000Y-104249366D02*
X196616666Y-104282700D01*
X196616666Y-104282700D02*
X196583333Y-104349366D01*
X196583333Y-104349366D02*
X196583333Y-104482700D01*
X196583333Y-104482700D02*
X196616666Y-104549366D01*
X196616666Y-104549366D02*
X196650000Y-104582700D01*
X196650000Y-104582700D02*
X196716666Y-104616033D01*
X196716666Y-104616033D02*
X196850000Y-104616033D01*
X196850000Y-104616033D02*
X196916666Y-104582700D01*
X196916666Y-104582700D02*
X196950000Y-104549366D01*
X196950000Y-104549366D02*
X196983333Y-104482700D01*
X196983333Y-104482700D02*
X196983333Y-104349366D01*
X196983333Y-104349366D02*
X196950000Y-104282700D01*
X196950000Y-104282700D02*
X196916666Y-104249366D01*
X196916666Y-104249366D02*
X196850000Y-104216033D01*
X123783333Y-102316033D02*
X123550000Y-101982700D01*
X123383333Y-102316033D02*
X123383333Y-101616033D01*
X123383333Y-101616033D02*
X123650000Y-101616033D01*
X123650000Y-101616033D02*
X123716667Y-101649366D01*
X123716667Y-101649366D02*
X123750000Y-101682700D01*
X123750000Y-101682700D02*
X123783333Y-101749366D01*
X123783333Y-101749366D02*
X123783333Y-101849366D01*
X123783333Y-101849366D02*
X123750000Y-101916033D01*
X123750000Y-101916033D02*
X123716667Y-101949366D01*
X123716667Y-101949366D02*
X123650000Y-101982700D01*
X123650000Y-101982700D02*
X123383333Y-101982700D01*
X124016667Y-101616033D02*
X124450000Y-101616033D01*
X124450000Y-101616033D02*
X124216667Y-101882700D01*
X124216667Y-101882700D02*
X124316667Y-101882700D01*
X124316667Y-101882700D02*
X124383333Y-101916033D01*
X124383333Y-101916033D02*
X124416667Y-101949366D01*
X124416667Y-101949366D02*
X124450000Y-102016033D01*
X124450000Y-102016033D02*
X124450000Y-102182700D01*
X124450000Y-102182700D02*
X124416667Y-102249366D01*
X124416667Y-102249366D02*
X124383333Y-102282700D01*
X124383333Y-102282700D02*
X124316667Y-102316033D01*
X124316667Y-102316033D02*
X124116667Y-102316033D01*
X124116667Y-102316033D02*
X124050000Y-102282700D01*
X124050000Y-102282700D02*
X124016667Y-102249366D01*
X173849999Y-103416033D02*
X173616666Y-103082700D01*
X173449999Y-103416033D02*
X173449999Y-102716033D01*
X173449999Y-102716033D02*
X173716666Y-102716033D01*
X173716666Y-102716033D02*
X173783333Y-102749366D01*
X173783333Y-102749366D02*
X173816666Y-102782700D01*
X173816666Y-102782700D02*
X173849999Y-102849366D01*
X173849999Y-102849366D02*
X173849999Y-102949366D01*
X173849999Y-102949366D02*
X173816666Y-103016033D01*
X173816666Y-103016033D02*
X173783333Y-103049366D01*
X173783333Y-103049366D02*
X173716666Y-103082700D01*
X173716666Y-103082700D02*
X173449999Y-103082700D01*
X174083333Y-102716033D02*
X174516666Y-102716033D01*
X174516666Y-102716033D02*
X174283333Y-102982700D01*
X174283333Y-102982700D02*
X174383333Y-102982700D01*
X174383333Y-102982700D02*
X174449999Y-103016033D01*
X174449999Y-103016033D02*
X174483333Y-103049366D01*
X174483333Y-103049366D02*
X174516666Y-103116033D01*
X174516666Y-103116033D02*
X174516666Y-103282700D01*
X174516666Y-103282700D02*
X174483333Y-103349366D01*
X174483333Y-103349366D02*
X174449999Y-103382700D01*
X174449999Y-103382700D02*
X174383333Y-103416033D01*
X174383333Y-103416033D02*
X174183333Y-103416033D01*
X174183333Y-103416033D02*
X174116666Y-103382700D01*
X174116666Y-103382700D02*
X174083333Y-103349366D01*
X174783333Y-102782700D02*
X174816666Y-102749366D01*
X174816666Y-102749366D02*
X174883333Y-102716033D01*
X174883333Y-102716033D02*
X175050000Y-102716033D01*
X175050000Y-102716033D02*
X175116666Y-102749366D01*
X175116666Y-102749366D02*
X175150000Y-102782700D01*
X175150000Y-102782700D02*
X175183333Y-102849366D01*
X175183333Y-102849366D02*
X175183333Y-102916033D01*
X175183333Y-102916033D02*
X175150000Y-103016033D01*
X175150000Y-103016033D02*
X174750000Y-103416033D01*
X174750000Y-103416033D02*
X175183333Y-103416033D01*
X83649999Y-73316032D02*
X83416666Y-72982699D01*
X83249999Y-73316032D02*
X83249999Y-72616032D01*
X83249999Y-72616032D02*
X83516666Y-72616032D01*
X83516666Y-72616032D02*
X83583333Y-72649365D01*
X83583333Y-72649365D02*
X83616666Y-72682699D01*
X83616666Y-72682699D02*
X83649999Y-72749365D01*
X83649999Y-72749365D02*
X83649999Y-72849365D01*
X83649999Y-72849365D02*
X83616666Y-72916032D01*
X83616666Y-72916032D02*
X83583333Y-72949365D01*
X83583333Y-72949365D02*
X83516666Y-72982699D01*
X83516666Y-72982699D02*
X83249999Y-72982699D01*
X84283333Y-72616032D02*
X83949999Y-72616032D01*
X83949999Y-72616032D02*
X83916666Y-72949365D01*
X83916666Y-72949365D02*
X83949999Y-72916032D01*
X83949999Y-72916032D02*
X84016666Y-72882699D01*
X84016666Y-72882699D02*
X84183333Y-72882699D01*
X84183333Y-72882699D02*
X84249999Y-72916032D01*
X84249999Y-72916032D02*
X84283333Y-72949365D01*
X84283333Y-72949365D02*
X84316666Y-73016032D01*
X84316666Y-73016032D02*
X84316666Y-73182699D01*
X84316666Y-73182699D02*
X84283333Y-73249365D01*
X84283333Y-73249365D02*
X84249999Y-73282699D01*
X84249999Y-73282699D02*
X84183333Y-73316032D01*
X84183333Y-73316032D02*
X84016666Y-73316032D01*
X84016666Y-73316032D02*
X83949999Y-73282699D01*
X83949999Y-73282699D02*
X83916666Y-73249365D01*
X84750000Y-72616032D02*
X84816666Y-72616032D01*
X84816666Y-72616032D02*
X84883333Y-72649365D01*
X84883333Y-72649365D02*
X84916666Y-72682699D01*
X84916666Y-72682699D02*
X84950000Y-72749365D01*
X84950000Y-72749365D02*
X84983333Y-72882699D01*
X84983333Y-72882699D02*
X84983333Y-73049365D01*
X84983333Y-73049365D02*
X84950000Y-73182699D01*
X84950000Y-73182699D02*
X84916666Y-73249365D01*
X84916666Y-73249365D02*
X84883333Y-73282699D01*
X84883333Y-73282699D02*
X84816666Y-73316032D01*
X84816666Y-73316032D02*
X84750000Y-73316032D01*
X84750000Y-73316032D02*
X84683333Y-73282699D01*
X84683333Y-73282699D02*
X84650000Y-73249365D01*
X84650000Y-73249365D02*
X84616666Y-73182699D01*
X84616666Y-73182699D02*
X84583333Y-73049365D01*
X84583333Y-73049365D02*
X84583333Y-72882699D01*
X84583333Y-72882699D02*
X84616666Y-72749365D01*
X84616666Y-72749365D02*
X84650000Y-72682699D01*
X84650000Y-72682699D02*
X84683333Y-72649365D01*
X84683333Y-72649365D02*
X84750000Y-72616032D01*
X195949999Y-70716034D02*
X195716666Y-70382701D01*
X195549999Y-70716034D02*
X195549999Y-70016034D01*
X195549999Y-70016034D02*
X195816666Y-70016034D01*
X195816666Y-70016034D02*
X195883333Y-70049367D01*
X195883333Y-70049367D02*
X195916666Y-70082701D01*
X195916666Y-70082701D02*
X195949999Y-70149367D01*
X195949999Y-70149367D02*
X195949999Y-70249367D01*
X195949999Y-70249367D02*
X195916666Y-70316034D01*
X195916666Y-70316034D02*
X195883333Y-70349367D01*
X195883333Y-70349367D02*
X195816666Y-70382701D01*
X195816666Y-70382701D02*
X195549999Y-70382701D01*
X196183333Y-70016034D02*
X196616666Y-70016034D01*
X196616666Y-70016034D02*
X196383333Y-70282701D01*
X196383333Y-70282701D02*
X196483333Y-70282701D01*
X196483333Y-70282701D02*
X196549999Y-70316034D01*
X196549999Y-70316034D02*
X196583333Y-70349367D01*
X196583333Y-70349367D02*
X196616666Y-70416034D01*
X196616666Y-70416034D02*
X196616666Y-70582701D01*
X196616666Y-70582701D02*
X196583333Y-70649367D01*
X196583333Y-70649367D02*
X196549999Y-70682701D01*
X196549999Y-70682701D02*
X196483333Y-70716034D01*
X196483333Y-70716034D02*
X196283333Y-70716034D01*
X196283333Y-70716034D02*
X196216666Y-70682701D01*
X196216666Y-70682701D02*
X196183333Y-70649367D01*
X196950000Y-70716034D02*
X197083333Y-70716034D01*
X197083333Y-70716034D02*
X197150000Y-70682701D01*
X197150000Y-70682701D02*
X197183333Y-70649367D01*
X197183333Y-70649367D02*
X197250000Y-70549367D01*
X197250000Y-70549367D02*
X197283333Y-70416034D01*
X197283333Y-70416034D02*
X197283333Y-70149367D01*
X197283333Y-70149367D02*
X197250000Y-70082701D01*
X197250000Y-70082701D02*
X197216666Y-70049367D01*
X197216666Y-70049367D02*
X197150000Y-70016034D01*
X197150000Y-70016034D02*
X197016666Y-70016034D01*
X197016666Y-70016034D02*
X196950000Y-70049367D01*
X196950000Y-70049367D02*
X196916666Y-70082701D01*
X196916666Y-70082701D02*
X196883333Y-70149367D01*
X196883333Y-70149367D02*
X196883333Y-70316034D01*
X196883333Y-70316034D02*
X196916666Y-70382701D01*
X196916666Y-70382701D02*
X196950000Y-70416034D01*
X196950000Y-70416034D02*
X197016666Y-70449367D01*
X197016666Y-70449367D02*
X197150000Y-70449367D01*
X197150000Y-70449367D02*
X197216666Y-70416034D01*
X197216666Y-70416034D02*
X197250000Y-70382701D01*
X197250000Y-70382701D02*
X197283333Y-70316034D01*
X182983095Y-118295819D02*
X182983095Y-117295819D01*
X182983095Y-117772009D02*
X183554523Y-117772009D01*
X183554523Y-118295819D02*
X183554523Y-117295819D01*
X184459285Y-117629152D02*
X184459285Y-118295819D01*
X184221190Y-117248200D02*
X183983095Y-117962485D01*
X183983095Y-117962485D02*
X184602142Y-117962485D01*
X177249999Y-72216033D02*
X177016666Y-71882700D01*
X176849999Y-72216033D02*
X176849999Y-71516033D01*
X176849999Y-71516033D02*
X177116666Y-71516033D01*
X177116666Y-71516033D02*
X177183333Y-71549366D01*
X177183333Y-71549366D02*
X177216666Y-71582700D01*
X177216666Y-71582700D02*
X177249999Y-71649366D01*
X177249999Y-71649366D02*
X177249999Y-71749366D01*
X177249999Y-71749366D02*
X177216666Y-71816033D01*
X177216666Y-71816033D02*
X177183333Y-71849366D01*
X177183333Y-71849366D02*
X177116666Y-71882700D01*
X177116666Y-71882700D02*
X176849999Y-71882700D01*
X177483333Y-71516033D02*
X177916666Y-71516033D01*
X177916666Y-71516033D02*
X177683333Y-71782700D01*
X177683333Y-71782700D02*
X177783333Y-71782700D01*
X177783333Y-71782700D02*
X177849999Y-71816033D01*
X177849999Y-71816033D02*
X177883333Y-71849366D01*
X177883333Y-71849366D02*
X177916666Y-71916033D01*
X177916666Y-71916033D02*
X177916666Y-72082700D01*
X177916666Y-72082700D02*
X177883333Y-72149366D01*
X177883333Y-72149366D02*
X177849999Y-72182700D01*
X177849999Y-72182700D02*
X177783333Y-72216033D01*
X177783333Y-72216033D02*
X177583333Y-72216033D01*
X177583333Y-72216033D02*
X177516666Y-72182700D01*
X177516666Y-72182700D02*
X177483333Y-72149366D01*
X178150000Y-71516033D02*
X178616666Y-71516033D01*
X178616666Y-71516033D02*
X178316666Y-72216033D01*
X83449999Y-71016033D02*
X83216666Y-70682700D01*
X83049999Y-71016033D02*
X83049999Y-70316033D01*
X83049999Y-70316033D02*
X83316666Y-70316033D01*
X83316666Y-70316033D02*
X83383333Y-70349366D01*
X83383333Y-70349366D02*
X83416666Y-70382700D01*
X83416666Y-70382700D02*
X83449999Y-70449366D01*
X83449999Y-70449366D02*
X83449999Y-70549366D01*
X83449999Y-70549366D02*
X83416666Y-70616033D01*
X83416666Y-70616033D02*
X83383333Y-70649366D01*
X83383333Y-70649366D02*
X83316666Y-70682700D01*
X83316666Y-70682700D02*
X83049999Y-70682700D01*
X84083333Y-70316033D02*
X83749999Y-70316033D01*
X83749999Y-70316033D02*
X83716666Y-70649366D01*
X83716666Y-70649366D02*
X83749999Y-70616033D01*
X83749999Y-70616033D02*
X83816666Y-70582700D01*
X83816666Y-70582700D02*
X83983333Y-70582700D01*
X83983333Y-70582700D02*
X84049999Y-70616033D01*
X84049999Y-70616033D02*
X84083333Y-70649366D01*
X84083333Y-70649366D02*
X84116666Y-70716033D01*
X84116666Y-70716033D02*
X84116666Y-70882700D01*
X84116666Y-70882700D02*
X84083333Y-70949366D01*
X84083333Y-70949366D02*
X84049999Y-70982700D01*
X84049999Y-70982700D02*
X83983333Y-71016033D01*
X83983333Y-71016033D02*
X83816666Y-71016033D01*
X83816666Y-71016033D02*
X83749999Y-70982700D01*
X83749999Y-70982700D02*
X83716666Y-70949366D01*
X84350000Y-70316033D02*
X84783333Y-70316033D01*
X84783333Y-70316033D02*
X84550000Y-70582700D01*
X84550000Y-70582700D02*
X84650000Y-70582700D01*
X84650000Y-70582700D02*
X84716666Y-70616033D01*
X84716666Y-70616033D02*
X84750000Y-70649366D01*
X84750000Y-70649366D02*
X84783333Y-70716033D01*
X84783333Y-70716033D02*
X84783333Y-70882700D01*
X84783333Y-70882700D02*
X84750000Y-70949366D01*
X84750000Y-70949366D02*
X84716666Y-70982700D01*
X84716666Y-70982700D02*
X84650000Y-71016033D01*
X84650000Y-71016033D02*
X84450000Y-71016033D01*
X84450000Y-71016033D02*
X84383333Y-70982700D01*
X84383333Y-70982700D02*
X84350000Y-70949366D01*
X119406665Y-76955966D02*
X119406665Y-76389300D01*
X119406665Y-76389300D02*
X119373332Y-76322633D01*
X119373332Y-76322633D02*
X119339998Y-76289300D01*
X119339998Y-76289300D02*
X119273332Y-76255966D01*
X119273332Y-76255966D02*
X119139998Y-76255966D01*
X119139998Y-76255966D02*
X119073332Y-76289300D01*
X119073332Y-76289300D02*
X119039998Y-76322633D01*
X119039998Y-76322633D02*
X119006665Y-76389300D01*
X119006665Y-76389300D02*
X119006665Y-76955966D01*
X118306665Y-76255966D02*
X118706665Y-76255966D01*
X118506665Y-76255966D02*
X118506665Y-76955966D01*
X118506665Y-76955966D02*
X118573332Y-76855966D01*
X118573332Y-76855966D02*
X118639999Y-76789300D01*
X118639999Y-76789300D02*
X118706665Y-76755966D01*
X117639998Y-76255966D02*
X118039998Y-76255966D01*
X117839998Y-76255966D02*
X117839998Y-76955966D01*
X117839998Y-76955966D02*
X117906665Y-76855966D01*
X117906665Y-76855966D02*
X117973332Y-76789300D01*
X117973332Y-76789300D02*
X118039998Y-76755966D01*
X107449999Y-71016033D02*
X107216666Y-70682700D01*
X107049999Y-71016033D02*
X107049999Y-70316033D01*
X107049999Y-70316033D02*
X107316666Y-70316033D01*
X107316666Y-70316033D02*
X107383333Y-70349366D01*
X107383333Y-70349366D02*
X107416666Y-70382700D01*
X107416666Y-70382700D02*
X107449999Y-70449366D01*
X107449999Y-70449366D02*
X107449999Y-70549366D01*
X107449999Y-70549366D02*
X107416666Y-70616033D01*
X107416666Y-70616033D02*
X107383333Y-70649366D01*
X107383333Y-70649366D02*
X107316666Y-70682700D01*
X107316666Y-70682700D02*
X107049999Y-70682700D01*
X108049999Y-70549366D02*
X108049999Y-71016033D01*
X107883333Y-70282700D02*
X107716666Y-70782700D01*
X107716666Y-70782700D02*
X108149999Y-70782700D01*
X108350000Y-70316033D02*
X108783333Y-70316033D01*
X108783333Y-70316033D02*
X108550000Y-70582700D01*
X108550000Y-70582700D02*
X108650000Y-70582700D01*
X108650000Y-70582700D02*
X108716666Y-70616033D01*
X108716666Y-70616033D02*
X108750000Y-70649366D01*
X108750000Y-70649366D02*
X108783333Y-70716033D01*
X108783333Y-70716033D02*
X108783333Y-70882700D01*
X108783333Y-70882700D02*
X108750000Y-70949366D01*
X108750000Y-70949366D02*
X108716666Y-70982700D01*
X108716666Y-70982700D02*
X108650000Y-71016033D01*
X108650000Y-71016033D02*
X108450000Y-71016033D01*
X108450000Y-71016033D02*
X108383333Y-70982700D01*
X108383333Y-70982700D02*
X108350000Y-70949366D01*
X101849999Y-103416033D02*
X101616666Y-103082700D01*
X101449999Y-103416033D02*
X101449999Y-102716033D01*
X101449999Y-102716033D02*
X101716666Y-102716033D01*
X101716666Y-102716033D02*
X101783333Y-102749366D01*
X101783333Y-102749366D02*
X101816666Y-102782700D01*
X101816666Y-102782700D02*
X101849999Y-102849366D01*
X101849999Y-102849366D02*
X101849999Y-102949366D01*
X101849999Y-102949366D02*
X101816666Y-103016033D01*
X101816666Y-103016033D02*
X101783333Y-103049366D01*
X101783333Y-103049366D02*
X101716666Y-103082700D01*
X101716666Y-103082700D02*
X101449999Y-103082700D01*
X102516666Y-103416033D02*
X102116666Y-103416033D01*
X102316666Y-103416033D02*
X102316666Y-102716033D01*
X102316666Y-102716033D02*
X102249999Y-102816033D01*
X102249999Y-102816033D02*
X102183333Y-102882700D01*
X102183333Y-102882700D02*
X102116666Y-102916033D01*
X102950000Y-102716033D02*
X103016666Y-102716033D01*
X103016666Y-102716033D02*
X103083333Y-102749366D01*
X103083333Y-102749366D02*
X103116666Y-102782700D01*
X103116666Y-102782700D02*
X103150000Y-102849366D01*
X103150000Y-102849366D02*
X103183333Y-102982700D01*
X103183333Y-102982700D02*
X103183333Y-103149366D01*
X103183333Y-103149366D02*
X103150000Y-103282700D01*
X103150000Y-103282700D02*
X103116666Y-103349366D01*
X103116666Y-103349366D02*
X103083333Y-103382700D01*
X103083333Y-103382700D02*
X103016666Y-103416033D01*
X103016666Y-103416033D02*
X102950000Y-103416033D01*
X102950000Y-103416033D02*
X102883333Y-103382700D01*
X102883333Y-103382700D02*
X102850000Y-103349366D01*
X102850000Y-103349366D02*
X102816666Y-103282700D01*
X102816666Y-103282700D02*
X102783333Y-103149366D01*
X102783333Y-103149366D02*
X102783333Y-102982700D01*
X102783333Y-102982700D02*
X102816666Y-102849366D01*
X102816666Y-102849366D02*
X102850000Y-102782700D01*
X102850000Y-102782700D02*
X102883333Y-102749366D01*
X102883333Y-102749366D02*
X102950000Y-102716033D01*
X167073332Y-76955966D02*
X167073332Y-76389300D01*
X167073332Y-76389300D02*
X167039999Y-76322633D01*
X167039999Y-76322633D02*
X167006665Y-76289300D01*
X167006665Y-76289300D02*
X166939999Y-76255966D01*
X166939999Y-76255966D02*
X166806665Y-76255966D01*
X166806665Y-76255966D02*
X166739999Y-76289300D01*
X166739999Y-76289300D02*
X166706665Y-76322633D01*
X166706665Y-76322633D02*
X166673332Y-76389300D01*
X166673332Y-76389300D02*
X166673332Y-76955966D01*
X166039999Y-76955966D02*
X166173332Y-76955966D01*
X166173332Y-76955966D02*
X166239999Y-76922633D01*
X166239999Y-76922633D02*
X166273332Y-76889300D01*
X166273332Y-76889300D02*
X166339999Y-76789300D01*
X166339999Y-76789300D02*
X166373332Y-76655966D01*
X166373332Y-76655966D02*
X166373332Y-76389300D01*
X166373332Y-76389300D02*
X166339999Y-76322633D01*
X166339999Y-76322633D02*
X166306666Y-76289300D01*
X166306666Y-76289300D02*
X166239999Y-76255966D01*
X166239999Y-76255966D02*
X166106666Y-76255966D01*
X166106666Y-76255966D02*
X166039999Y-76289300D01*
X166039999Y-76289300D02*
X166006666Y-76322633D01*
X166006666Y-76322633D02*
X165973332Y-76389300D01*
X165973332Y-76389300D02*
X165973332Y-76555966D01*
X165973332Y-76555966D02*
X166006666Y-76622633D01*
X166006666Y-76622633D02*
X166039999Y-76655966D01*
X166039999Y-76655966D02*
X166106666Y-76689300D01*
X166106666Y-76689300D02*
X166239999Y-76689300D01*
X166239999Y-76689300D02*
X166306666Y-76655966D01*
X166306666Y-76655966D02*
X166339999Y-76622633D01*
X166339999Y-76622633D02*
X166373332Y-76555966D01*
X129249999Y-72216033D02*
X129016666Y-71882700D01*
X128849999Y-72216033D02*
X128849999Y-71516033D01*
X128849999Y-71516033D02*
X129116666Y-71516033D01*
X129116666Y-71516033D02*
X129183333Y-71549366D01*
X129183333Y-71549366D02*
X129216666Y-71582700D01*
X129216666Y-71582700D02*
X129249999Y-71649366D01*
X129249999Y-71649366D02*
X129249999Y-71749366D01*
X129249999Y-71749366D02*
X129216666Y-71816033D01*
X129216666Y-71816033D02*
X129183333Y-71849366D01*
X129183333Y-71849366D02*
X129116666Y-71882700D01*
X129116666Y-71882700D02*
X128849999Y-71882700D01*
X129516666Y-71582700D02*
X129549999Y-71549366D01*
X129549999Y-71549366D02*
X129616666Y-71516033D01*
X129616666Y-71516033D02*
X129783333Y-71516033D01*
X129783333Y-71516033D02*
X129849999Y-71549366D01*
X129849999Y-71549366D02*
X129883333Y-71582700D01*
X129883333Y-71582700D02*
X129916666Y-71649366D01*
X129916666Y-71649366D02*
X129916666Y-71716033D01*
X129916666Y-71716033D02*
X129883333Y-71816033D01*
X129883333Y-71816033D02*
X129483333Y-72216033D01*
X129483333Y-72216033D02*
X129916666Y-72216033D01*
X130550000Y-71516033D02*
X130216666Y-71516033D01*
X130216666Y-71516033D02*
X130183333Y-71849366D01*
X130183333Y-71849366D02*
X130216666Y-71816033D01*
X130216666Y-71816033D02*
X130283333Y-71782700D01*
X130283333Y-71782700D02*
X130450000Y-71782700D01*
X130450000Y-71782700D02*
X130516666Y-71816033D01*
X130516666Y-71816033D02*
X130550000Y-71849366D01*
X130550000Y-71849366D02*
X130583333Y-71916033D01*
X130583333Y-71916033D02*
X130583333Y-72082700D01*
X130583333Y-72082700D02*
X130550000Y-72149366D01*
X130550000Y-72149366D02*
X130516666Y-72182700D01*
X130516666Y-72182700D02*
X130450000Y-72216033D01*
X130450000Y-72216033D02*
X130283333Y-72216033D01*
X130283333Y-72216033D02*
X130216666Y-72182700D01*
X130216666Y-72182700D02*
X130183333Y-72149366D01*
X114024819Y-88785713D02*
X114024819Y-88214285D01*
X115024819Y-88499999D02*
X114024819Y-88499999D01*
X115024819Y-87880951D02*
X114024819Y-87880951D01*
X114501009Y-87880951D02*
X114501009Y-87309523D01*
X115024819Y-87309523D02*
X114024819Y-87309523D01*
X115024819Y-86309523D02*
X115024819Y-86880951D01*
X115024819Y-86595237D02*
X114024819Y-86595237D01*
X114024819Y-86595237D02*
X114167676Y-86690475D01*
X114167676Y-86690475D02*
X114262914Y-86785713D01*
X114262914Y-86785713D02*
X114310533Y-86880951D01*
X155149999Y-104916033D02*
X154916666Y-104582700D01*
X154749999Y-104916033D02*
X154749999Y-104216033D01*
X154749999Y-104216033D02*
X155016666Y-104216033D01*
X155016666Y-104216033D02*
X155083333Y-104249366D01*
X155083333Y-104249366D02*
X155116666Y-104282700D01*
X155116666Y-104282700D02*
X155149999Y-104349366D01*
X155149999Y-104349366D02*
X155149999Y-104449366D01*
X155149999Y-104449366D02*
X155116666Y-104516033D01*
X155116666Y-104516033D02*
X155083333Y-104549366D01*
X155083333Y-104549366D02*
X155016666Y-104582700D01*
X155016666Y-104582700D02*
X154749999Y-104582700D01*
X155383333Y-104216033D02*
X155816666Y-104216033D01*
X155816666Y-104216033D02*
X155583333Y-104482700D01*
X155583333Y-104482700D02*
X155683333Y-104482700D01*
X155683333Y-104482700D02*
X155749999Y-104516033D01*
X155749999Y-104516033D02*
X155783333Y-104549366D01*
X155783333Y-104549366D02*
X155816666Y-104616033D01*
X155816666Y-104616033D02*
X155816666Y-104782700D01*
X155816666Y-104782700D02*
X155783333Y-104849366D01*
X155783333Y-104849366D02*
X155749999Y-104882700D01*
X155749999Y-104882700D02*
X155683333Y-104916033D01*
X155683333Y-104916033D02*
X155483333Y-104916033D01*
X155483333Y-104916033D02*
X155416666Y-104882700D01*
X155416666Y-104882700D02*
X155383333Y-104849366D01*
X156416666Y-104449366D02*
X156416666Y-104916033D01*
X156250000Y-104182700D02*
X156083333Y-104682700D01*
X156083333Y-104682700D02*
X156516666Y-104682700D01*
X105249999Y-72216033D02*
X105016666Y-71882700D01*
X104849999Y-72216033D02*
X104849999Y-71516033D01*
X104849999Y-71516033D02*
X105116666Y-71516033D01*
X105116666Y-71516033D02*
X105183333Y-71549366D01*
X105183333Y-71549366D02*
X105216666Y-71582700D01*
X105216666Y-71582700D02*
X105249999Y-71649366D01*
X105249999Y-71649366D02*
X105249999Y-71749366D01*
X105249999Y-71749366D02*
X105216666Y-71816033D01*
X105216666Y-71816033D02*
X105183333Y-71849366D01*
X105183333Y-71849366D02*
X105116666Y-71882700D01*
X105116666Y-71882700D02*
X104849999Y-71882700D01*
X105849999Y-71749366D02*
X105849999Y-72216033D01*
X105683333Y-71482700D02*
X105516666Y-71982700D01*
X105516666Y-71982700D02*
X105949999Y-71982700D01*
X106183333Y-71582700D02*
X106216666Y-71549366D01*
X106216666Y-71549366D02*
X106283333Y-71516033D01*
X106283333Y-71516033D02*
X106450000Y-71516033D01*
X106450000Y-71516033D02*
X106516666Y-71549366D01*
X106516666Y-71549366D02*
X106550000Y-71582700D01*
X106550000Y-71582700D02*
X106583333Y-71649366D01*
X106583333Y-71649366D02*
X106583333Y-71716033D01*
X106583333Y-71716033D02*
X106550000Y-71816033D01*
X106550000Y-71816033D02*
X106150000Y-72216033D01*
X106150000Y-72216033D02*
X106583333Y-72216033D01*
X126183333Y-103416033D02*
X125950000Y-103082700D01*
X125783333Y-103416033D02*
X125783333Y-102716033D01*
X125783333Y-102716033D02*
X126050000Y-102716033D01*
X126050000Y-102716033D02*
X126116667Y-102749366D01*
X126116667Y-102749366D02*
X126150000Y-102782700D01*
X126150000Y-102782700D02*
X126183333Y-102849366D01*
X126183333Y-102849366D02*
X126183333Y-102949366D01*
X126183333Y-102949366D02*
X126150000Y-103016033D01*
X126150000Y-103016033D02*
X126116667Y-103049366D01*
X126116667Y-103049366D02*
X126050000Y-103082700D01*
X126050000Y-103082700D02*
X125783333Y-103082700D01*
X126816667Y-102716033D02*
X126483333Y-102716033D01*
X126483333Y-102716033D02*
X126450000Y-103049366D01*
X126450000Y-103049366D02*
X126483333Y-103016033D01*
X126483333Y-103016033D02*
X126550000Y-102982700D01*
X126550000Y-102982700D02*
X126716667Y-102982700D01*
X126716667Y-102982700D02*
X126783333Y-103016033D01*
X126783333Y-103016033D02*
X126816667Y-103049366D01*
X126816667Y-103049366D02*
X126850000Y-103116033D01*
X126850000Y-103116033D02*
X126850000Y-103282700D01*
X126850000Y-103282700D02*
X126816667Y-103349366D01*
X126816667Y-103349366D02*
X126783333Y-103382700D01*
X126783333Y-103382700D02*
X126716667Y-103416033D01*
X126716667Y-103416033D02*
X126550000Y-103416033D01*
X126550000Y-103416033D02*
X126483333Y-103382700D01*
X126483333Y-103382700D02*
X126450000Y-103349366D01*
X147349999Y-72916033D02*
X147116666Y-72582700D01*
X146949999Y-72916033D02*
X146949999Y-72216033D01*
X146949999Y-72216033D02*
X147216666Y-72216033D01*
X147216666Y-72216033D02*
X147283333Y-72249366D01*
X147283333Y-72249366D02*
X147316666Y-72282700D01*
X147316666Y-72282700D02*
X147349999Y-72349366D01*
X147349999Y-72349366D02*
X147349999Y-72449366D01*
X147349999Y-72449366D02*
X147316666Y-72516033D01*
X147316666Y-72516033D02*
X147283333Y-72549366D01*
X147283333Y-72549366D02*
X147216666Y-72582700D01*
X147216666Y-72582700D02*
X146949999Y-72582700D01*
X147616666Y-72282700D02*
X147649999Y-72249366D01*
X147649999Y-72249366D02*
X147716666Y-72216033D01*
X147716666Y-72216033D02*
X147883333Y-72216033D01*
X147883333Y-72216033D02*
X147949999Y-72249366D01*
X147949999Y-72249366D02*
X147983333Y-72282700D01*
X147983333Y-72282700D02*
X148016666Y-72349366D01*
X148016666Y-72349366D02*
X148016666Y-72416033D01*
X148016666Y-72416033D02*
X147983333Y-72516033D01*
X147983333Y-72516033D02*
X147583333Y-72916033D01*
X147583333Y-72916033D02*
X148016666Y-72916033D01*
X148616666Y-72449366D02*
X148616666Y-72916033D01*
X148450000Y-72182700D02*
X148283333Y-72682700D01*
X148283333Y-72682700D02*
X148716666Y-72682700D01*
X81249999Y-72216033D02*
X81016666Y-71882700D01*
X80849999Y-72216033D02*
X80849999Y-71516033D01*
X80849999Y-71516033D02*
X81116666Y-71516033D01*
X81116666Y-71516033D02*
X81183333Y-71549366D01*
X81183333Y-71549366D02*
X81216666Y-71582700D01*
X81216666Y-71582700D02*
X81249999Y-71649366D01*
X81249999Y-71649366D02*
X81249999Y-71749366D01*
X81249999Y-71749366D02*
X81216666Y-71816033D01*
X81216666Y-71816033D02*
X81183333Y-71849366D01*
X81183333Y-71849366D02*
X81116666Y-71882700D01*
X81116666Y-71882700D02*
X80849999Y-71882700D01*
X81883333Y-71516033D02*
X81549999Y-71516033D01*
X81549999Y-71516033D02*
X81516666Y-71849366D01*
X81516666Y-71849366D02*
X81549999Y-71816033D01*
X81549999Y-71816033D02*
X81616666Y-71782700D01*
X81616666Y-71782700D02*
X81783333Y-71782700D01*
X81783333Y-71782700D02*
X81849999Y-71816033D01*
X81849999Y-71816033D02*
X81883333Y-71849366D01*
X81883333Y-71849366D02*
X81916666Y-71916033D01*
X81916666Y-71916033D02*
X81916666Y-72082700D01*
X81916666Y-72082700D02*
X81883333Y-72149366D01*
X81883333Y-72149366D02*
X81849999Y-72182700D01*
X81849999Y-72182700D02*
X81783333Y-72216033D01*
X81783333Y-72216033D02*
X81616666Y-72216033D01*
X81616666Y-72216033D02*
X81549999Y-72182700D01*
X81549999Y-72182700D02*
X81516666Y-72149366D01*
X82183333Y-71582700D02*
X82216666Y-71549366D01*
X82216666Y-71549366D02*
X82283333Y-71516033D01*
X82283333Y-71516033D02*
X82450000Y-71516033D01*
X82450000Y-71516033D02*
X82516666Y-71549366D01*
X82516666Y-71549366D02*
X82550000Y-71582700D01*
X82550000Y-71582700D02*
X82583333Y-71649366D01*
X82583333Y-71649366D02*
X82583333Y-71716033D01*
X82583333Y-71716033D02*
X82550000Y-71816033D01*
X82550000Y-71816033D02*
X82150000Y-72216033D01*
X82150000Y-72216033D02*
X82583333Y-72216033D01*
X79049999Y-73216033D02*
X78816666Y-72882700D01*
X78649999Y-73216033D02*
X78649999Y-72516033D01*
X78649999Y-72516033D02*
X78916666Y-72516033D01*
X78916666Y-72516033D02*
X78983333Y-72549366D01*
X78983333Y-72549366D02*
X79016666Y-72582700D01*
X79016666Y-72582700D02*
X79049999Y-72649366D01*
X79049999Y-72649366D02*
X79049999Y-72749366D01*
X79049999Y-72749366D02*
X79016666Y-72816033D01*
X79016666Y-72816033D02*
X78983333Y-72849366D01*
X78983333Y-72849366D02*
X78916666Y-72882700D01*
X78916666Y-72882700D02*
X78649999Y-72882700D01*
X79316666Y-72582700D02*
X79349999Y-72549366D01*
X79349999Y-72549366D02*
X79416666Y-72516033D01*
X79416666Y-72516033D02*
X79583333Y-72516033D01*
X79583333Y-72516033D02*
X79649999Y-72549366D01*
X79649999Y-72549366D02*
X79683333Y-72582700D01*
X79683333Y-72582700D02*
X79716666Y-72649366D01*
X79716666Y-72649366D02*
X79716666Y-72716033D01*
X79716666Y-72716033D02*
X79683333Y-72816033D01*
X79683333Y-72816033D02*
X79283333Y-73216033D01*
X79283333Y-73216033D02*
X79716666Y-73216033D01*
X80116666Y-72816033D02*
X80050000Y-72782700D01*
X80050000Y-72782700D02*
X80016666Y-72749366D01*
X80016666Y-72749366D02*
X79983333Y-72682700D01*
X79983333Y-72682700D02*
X79983333Y-72649366D01*
X79983333Y-72649366D02*
X80016666Y-72582700D01*
X80016666Y-72582700D02*
X80050000Y-72549366D01*
X80050000Y-72549366D02*
X80116666Y-72516033D01*
X80116666Y-72516033D02*
X80250000Y-72516033D01*
X80250000Y-72516033D02*
X80316666Y-72549366D01*
X80316666Y-72549366D02*
X80350000Y-72582700D01*
X80350000Y-72582700D02*
X80383333Y-72649366D01*
X80383333Y-72649366D02*
X80383333Y-72682700D01*
X80383333Y-72682700D02*
X80350000Y-72749366D01*
X80350000Y-72749366D02*
X80316666Y-72782700D01*
X80316666Y-72782700D02*
X80250000Y-72816033D01*
X80250000Y-72816033D02*
X80116666Y-72816033D01*
X80116666Y-72816033D02*
X80050000Y-72849366D01*
X80050000Y-72849366D02*
X80016666Y-72882700D01*
X80016666Y-72882700D02*
X79983333Y-72949366D01*
X79983333Y-72949366D02*
X79983333Y-73082700D01*
X79983333Y-73082700D02*
X80016666Y-73149366D01*
X80016666Y-73149366D02*
X80050000Y-73182700D01*
X80050000Y-73182700D02*
X80116666Y-73216033D01*
X80116666Y-73216033D02*
X80250000Y-73216033D01*
X80250000Y-73216033D02*
X80316666Y-73182700D01*
X80316666Y-73182700D02*
X80350000Y-73149366D01*
X80350000Y-73149366D02*
X80383333Y-73082700D01*
X80383333Y-73082700D02*
X80383333Y-72949366D01*
X80383333Y-72949366D02*
X80350000Y-72882700D01*
X80350000Y-72882700D02*
X80316666Y-72849366D01*
X80316666Y-72849366D02*
X80250000Y-72816033D01*
X131649999Y-73316032D02*
X131416666Y-72982699D01*
X131249999Y-73316032D02*
X131249999Y-72616032D01*
X131249999Y-72616032D02*
X131516666Y-72616032D01*
X131516666Y-72616032D02*
X131583333Y-72649365D01*
X131583333Y-72649365D02*
X131616666Y-72682699D01*
X131616666Y-72682699D02*
X131649999Y-72749365D01*
X131649999Y-72749365D02*
X131649999Y-72849365D01*
X131649999Y-72849365D02*
X131616666Y-72916032D01*
X131616666Y-72916032D02*
X131583333Y-72949365D01*
X131583333Y-72949365D02*
X131516666Y-72982699D01*
X131516666Y-72982699D02*
X131249999Y-72982699D01*
X131916666Y-72682699D02*
X131949999Y-72649365D01*
X131949999Y-72649365D02*
X132016666Y-72616032D01*
X132016666Y-72616032D02*
X132183333Y-72616032D01*
X132183333Y-72616032D02*
X132249999Y-72649365D01*
X132249999Y-72649365D02*
X132283333Y-72682699D01*
X132283333Y-72682699D02*
X132316666Y-72749365D01*
X132316666Y-72749365D02*
X132316666Y-72816032D01*
X132316666Y-72816032D02*
X132283333Y-72916032D01*
X132283333Y-72916032D02*
X131883333Y-73316032D01*
X131883333Y-73316032D02*
X132316666Y-73316032D01*
X132550000Y-72616032D02*
X132983333Y-72616032D01*
X132983333Y-72616032D02*
X132750000Y-72882699D01*
X132750000Y-72882699D02*
X132850000Y-72882699D01*
X132850000Y-72882699D02*
X132916666Y-72916032D01*
X132916666Y-72916032D02*
X132950000Y-72949365D01*
X132950000Y-72949365D02*
X132983333Y-73016032D01*
X132983333Y-73016032D02*
X132983333Y-73182699D01*
X132983333Y-73182699D02*
X132950000Y-73249365D01*
X132950000Y-73249365D02*
X132916666Y-73282699D01*
X132916666Y-73282699D02*
X132850000Y-73316032D01*
X132850000Y-73316032D02*
X132650000Y-73316032D01*
X132650000Y-73316032D02*
X132583333Y-73282699D01*
X132583333Y-73282699D02*
X132550000Y-73249365D01*
X136926666Y-98044033D02*
X136926666Y-98610700D01*
X136926666Y-98610700D02*
X136960000Y-98677366D01*
X136960000Y-98677366D02*
X136993333Y-98710700D01*
X136993333Y-98710700D02*
X137060000Y-98744033D01*
X137060000Y-98744033D02*
X137193333Y-98744033D01*
X137193333Y-98744033D02*
X137260000Y-98710700D01*
X137260000Y-98710700D02*
X137293333Y-98677366D01*
X137293333Y-98677366D02*
X137326666Y-98610700D01*
X137326666Y-98610700D02*
X137326666Y-98044033D01*
X137593333Y-98044033D02*
X138059999Y-98044033D01*
X138059999Y-98044033D02*
X137759999Y-98744033D01*
X87098095Y-57843819D02*
X87098095Y-56843819D01*
X87098095Y-57320009D02*
X87669523Y-57320009D01*
X87669523Y-57843819D02*
X87669523Y-56843819D01*
X88669523Y-57843819D02*
X88098095Y-57843819D01*
X88383809Y-57843819D02*
X88383809Y-56843819D01*
X88383809Y-56843819D02*
X88288571Y-56986676D01*
X88288571Y-56986676D02*
X88193333Y-57081914D01*
X88193333Y-57081914D02*
X88098095Y-57129533D01*
X179649999Y-73316032D02*
X179416666Y-72982699D01*
X179249999Y-73316032D02*
X179249999Y-72616032D01*
X179249999Y-72616032D02*
X179516666Y-72616032D01*
X179516666Y-72616032D02*
X179583333Y-72649365D01*
X179583333Y-72649365D02*
X179616666Y-72682699D01*
X179616666Y-72682699D02*
X179649999Y-72749365D01*
X179649999Y-72749365D02*
X179649999Y-72849365D01*
X179649999Y-72849365D02*
X179616666Y-72916032D01*
X179616666Y-72916032D02*
X179583333Y-72949365D01*
X179583333Y-72949365D02*
X179516666Y-72982699D01*
X179516666Y-72982699D02*
X179249999Y-72982699D01*
X179883333Y-72616032D02*
X180316666Y-72616032D01*
X180316666Y-72616032D02*
X180083333Y-72882699D01*
X180083333Y-72882699D02*
X180183333Y-72882699D01*
X180183333Y-72882699D02*
X180249999Y-72916032D01*
X180249999Y-72916032D02*
X180283333Y-72949365D01*
X180283333Y-72949365D02*
X180316666Y-73016032D01*
X180316666Y-73016032D02*
X180316666Y-73182699D01*
X180316666Y-73182699D02*
X180283333Y-73249365D01*
X180283333Y-73249365D02*
X180249999Y-73282699D01*
X180249999Y-73282699D02*
X180183333Y-73316032D01*
X180183333Y-73316032D02*
X179983333Y-73316032D01*
X179983333Y-73316032D02*
X179916666Y-73282699D01*
X179916666Y-73282699D02*
X179883333Y-73249365D01*
X180950000Y-72616032D02*
X180616666Y-72616032D01*
X180616666Y-72616032D02*
X180583333Y-72949365D01*
X180583333Y-72949365D02*
X180616666Y-72916032D01*
X180616666Y-72916032D02*
X180683333Y-72882699D01*
X180683333Y-72882699D02*
X180850000Y-72882699D01*
X180850000Y-72882699D02*
X180916666Y-72916032D01*
X180916666Y-72916032D02*
X180950000Y-72949365D01*
X180950000Y-72949365D02*
X180983333Y-73016032D01*
X180983333Y-73016032D02*
X180983333Y-73182699D01*
X180983333Y-73182699D02*
X180950000Y-73249365D01*
X180950000Y-73249365D02*
X180916666Y-73282699D01*
X180916666Y-73282699D02*
X180850000Y-73316032D01*
X180850000Y-73316032D02*
X180683333Y-73316032D01*
X180683333Y-73316032D02*
X180616666Y-73282699D01*
X180616666Y-73282699D02*
X180583333Y-73249365D01*
X131149999Y-104916033D02*
X130916666Y-104582700D01*
X130749999Y-104916033D02*
X130749999Y-104216033D01*
X130749999Y-104216033D02*
X131016666Y-104216033D01*
X131016666Y-104216033D02*
X131083333Y-104249366D01*
X131083333Y-104249366D02*
X131116666Y-104282700D01*
X131116666Y-104282700D02*
X131149999Y-104349366D01*
X131149999Y-104349366D02*
X131149999Y-104449366D01*
X131149999Y-104449366D02*
X131116666Y-104516033D01*
X131116666Y-104516033D02*
X131083333Y-104549366D01*
X131083333Y-104549366D02*
X131016666Y-104582700D01*
X131016666Y-104582700D02*
X130749999Y-104582700D01*
X131416666Y-104282700D02*
X131449999Y-104249366D01*
X131449999Y-104249366D02*
X131516666Y-104216033D01*
X131516666Y-104216033D02*
X131683333Y-104216033D01*
X131683333Y-104216033D02*
X131749999Y-104249366D01*
X131749999Y-104249366D02*
X131783333Y-104282700D01*
X131783333Y-104282700D02*
X131816666Y-104349366D01*
X131816666Y-104349366D02*
X131816666Y-104416033D01*
X131816666Y-104416033D02*
X131783333Y-104516033D01*
X131783333Y-104516033D02*
X131383333Y-104916033D01*
X131383333Y-104916033D02*
X131816666Y-104916033D01*
X132083333Y-104282700D02*
X132116666Y-104249366D01*
X132116666Y-104249366D02*
X132183333Y-104216033D01*
X132183333Y-104216033D02*
X132350000Y-104216033D01*
X132350000Y-104216033D02*
X132416666Y-104249366D01*
X132416666Y-104249366D02*
X132450000Y-104282700D01*
X132450000Y-104282700D02*
X132483333Y-104349366D01*
X132483333Y-104349366D02*
X132483333Y-104416033D01*
X132483333Y-104416033D02*
X132450000Y-104516033D01*
X132450000Y-104516033D02*
X132050000Y-104916033D01*
X132050000Y-104916033D02*
X132483333Y-104916033D01*
X171349999Y-72916033D02*
X171116666Y-72582700D01*
X170949999Y-72916033D02*
X170949999Y-72216033D01*
X170949999Y-72216033D02*
X171216666Y-72216033D01*
X171216666Y-72216033D02*
X171283333Y-72249366D01*
X171283333Y-72249366D02*
X171316666Y-72282700D01*
X171316666Y-72282700D02*
X171349999Y-72349366D01*
X171349999Y-72349366D02*
X171349999Y-72449366D01*
X171349999Y-72449366D02*
X171316666Y-72516033D01*
X171316666Y-72516033D02*
X171283333Y-72549366D01*
X171283333Y-72549366D02*
X171216666Y-72582700D01*
X171216666Y-72582700D02*
X170949999Y-72582700D01*
X172016666Y-72916033D02*
X171616666Y-72916033D01*
X171816666Y-72916033D02*
X171816666Y-72216033D01*
X171816666Y-72216033D02*
X171749999Y-72316033D01*
X171749999Y-72316033D02*
X171683333Y-72382700D01*
X171683333Y-72382700D02*
X171616666Y-72416033D01*
X172616666Y-72449366D02*
X172616666Y-72916033D01*
X172450000Y-72182700D02*
X172283333Y-72682700D01*
X172283333Y-72682700D02*
X172716666Y-72682700D01*
X155649999Y-73316032D02*
X155416666Y-72982699D01*
X155249999Y-73316032D02*
X155249999Y-72616032D01*
X155249999Y-72616032D02*
X155516666Y-72616032D01*
X155516666Y-72616032D02*
X155583333Y-72649365D01*
X155583333Y-72649365D02*
X155616666Y-72682699D01*
X155616666Y-72682699D02*
X155649999Y-72749365D01*
X155649999Y-72749365D02*
X155649999Y-72849365D01*
X155649999Y-72849365D02*
X155616666Y-72916032D01*
X155616666Y-72916032D02*
X155583333Y-72949365D01*
X155583333Y-72949365D02*
X155516666Y-72982699D01*
X155516666Y-72982699D02*
X155249999Y-72982699D01*
X156316666Y-73316032D02*
X155916666Y-73316032D01*
X156116666Y-73316032D02*
X156116666Y-72616032D01*
X156116666Y-72616032D02*
X156049999Y-72716032D01*
X156049999Y-72716032D02*
X155983333Y-72782699D01*
X155983333Y-72782699D02*
X155916666Y-72816032D01*
X156550000Y-72616032D02*
X156983333Y-72616032D01*
X156983333Y-72616032D02*
X156750000Y-72882699D01*
X156750000Y-72882699D02*
X156850000Y-72882699D01*
X156850000Y-72882699D02*
X156916666Y-72916032D01*
X156916666Y-72916032D02*
X156950000Y-72949365D01*
X156950000Y-72949365D02*
X156983333Y-73016032D01*
X156983333Y-73016032D02*
X156983333Y-73182699D01*
X156983333Y-73182699D02*
X156950000Y-73249365D01*
X156950000Y-73249365D02*
X156916666Y-73282699D01*
X156916666Y-73282699D02*
X156850000Y-73316032D01*
X156850000Y-73316032D02*
X156650000Y-73316032D01*
X156650000Y-73316032D02*
X156583333Y-73282699D01*
X156583333Y-73282699D02*
X156550000Y-73249365D01*
X155749999Y-102716033D02*
X155516666Y-102382700D01*
X155349999Y-102716033D02*
X155349999Y-102016033D01*
X155349999Y-102016033D02*
X155616666Y-102016033D01*
X155616666Y-102016033D02*
X155683333Y-102049366D01*
X155683333Y-102049366D02*
X155716666Y-102082700D01*
X155716666Y-102082700D02*
X155749999Y-102149366D01*
X155749999Y-102149366D02*
X155749999Y-102249366D01*
X155749999Y-102249366D02*
X155716666Y-102316033D01*
X155716666Y-102316033D02*
X155683333Y-102349366D01*
X155683333Y-102349366D02*
X155616666Y-102382700D01*
X155616666Y-102382700D02*
X155349999Y-102382700D01*
X155983333Y-102016033D02*
X156416666Y-102016033D01*
X156416666Y-102016033D02*
X156183333Y-102282700D01*
X156183333Y-102282700D02*
X156283333Y-102282700D01*
X156283333Y-102282700D02*
X156349999Y-102316033D01*
X156349999Y-102316033D02*
X156383333Y-102349366D01*
X156383333Y-102349366D02*
X156416666Y-102416033D01*
X156416666Y-102416033D02*
X156416666Y-102582700D01*
X156416666Y-102582700D02*
X156383333Y-102649366D01*
X156383333Y-102649366D02*
X156349999Y-102682700D01*
X156349999Y-102682700D02*
X156283333Y-102716033D01*
X156283333Y-102716033D02*
X156083333Y-102716033D01*
X156083333Y-102716033D02*
X156016666Y-102682700D01*
X156016666Y-102682700D02*
X155983333Y-102649366D01*
X157083333Y-102716033D02*
X156683333Y-102716033D01*
X156883333Y-102716033D02*
X156883333Y-102016033D01*
X156883333Y-102016033D02*
X156816666Y-102116033D01*
X156816666Y-102116033D02*
X156750000Y-102182700D01*
X156750000Y-102182700D02*
X156683333Y-102216033D01*
X84083333Y-102716033D02*
X83850000Y-102382700D01*
X83683333Y-102716033D02*
X83683333Y-102016033D01*
X83683333Y-102016033D02*
X83950000Y-102016033D01*
X83950000Y-102016033D02*
X84016667Y-102049366D01*
X84016667Y-102049366D02*
X84050000Y-102082700D01*
X84050000Y-102082700D02*
X84083333Y-102149366D01*
X84083333Y-102149366D02*
X84083333Y-102249366D01*
X84083333Y-102249366D02*
X84050000Y-102316033D01*
X84050000Y-102316033D02*
X84016667Y-102349366D01*
X84016667Y-102349366D02*
X83950000Y-102382700D01*
X83950000Y-102382700D02*
X83683333Y-102382700D01*
X84416667Y-102716033D02*
X84550000Y-102716033D01*
X84550000Y-102716033D02*
X84616667Y-102682700D01*
X84616667Y-102682700D02*
X84650000Y-102649366D01*
X84650000Y-102649366D02*
X84716667Y-102549366D01*
X84716667Y-102549366D02*
X84750000Y-102416033D01*
X84750000Y-102416033D02*
X84750000Y-102149366D01*
X84750000Y-102149366D02*
X84716667Y-102082700D01*
X84716667Y-102082700D02*
X84683333Y-102049366D01*
X84683333Y-102049366D02*
X84616667Y-102016033D01*
X84616667Y-102016033D02*
X84483333Y-102016033D01*
X84483333Y-102016033D02*
X84416667Y-102049366D01*
X84416667Y-102049366D02*
X84383333Y-102082700D01*
X84383333Y-102082700D02*
X84350000Y-102149366D01*
X84350000Y-102149366D02*
X84350000Y-102316033D01*
X84350000Y-102316033D02*
X84383333Y-102382700D01*
X84383333Y-102382700D02*
X84416667Y-102416033D01*
X84416667Y-102416033D02*
X84483333Y-102449366D01*
X84483333Y-102449366D02*
X84616667Y-102449366D01*
X84616667Y-102449366D02*
X84683333Y-102416033D01*
X84683333Y-102416033D02*
X84716667Y-102382700D01*
X84716667Y-102382700D02*
X84750000Y-102316033D01*
X159098095Y-57843819D02*
X159098095Y-56843819D01*
X159098095Y-57320009D02*
X159669523Y-57320009D01*
X159669523Y-57843819D02*
X159669523Y-56843819D01*
X160288571Y-57272390D02*
X160193333Y-57224771D01*
X160193333Y-57224771D02*
X160145714Y-57177152D01*
X160145714Y-57177152D02*
X160098095Y-57081914D01*
X160098095Y-57081914D02*
X160098095Y-57034295D01*
X160098095Y-57034295D02*
X160145714Y-56939057D01*
X160145714Y-56939057D02*
X160193333Y-56891438D01*
X160193333Y-56891438D02*
X160288571Y-56843819D01*
X160288571Y-56843819D02*
X160479047Y-56843819D01*
X160479047Y-56843819D02*
X160574285Y-56891438D01*
X160574285Y-56891438D02*
X160621904Y-56939057D01*
X160621904Y-56939057D02*
X160669523Y-57034295D01*
X160669523Y-57034295D02*
X160669523Y-57081914D01*
X160669523Y-57081914D02*
X160621904Y-57177152D01*
X160621904Y-57177152D02*
X160574285Y-57224771D01*
X160574285Y-57224771D02*
X160479047Y-57272390D01*
X160479047Y-57272390D02*
X160288571Y-57272390D01*
X160288571Y-57272390D02*
X160193333Y-57320009D01*
X160193333Y-57320009D02*
X160145714Y-57367628D01*
X160145714Y-57367628D02*
X160098095Y-57462866D01*
X160098095Y-57462866D02*
X160098095Y-57653342D01*
X160098095Y-57653342D02*
X160145714Y-57748580D01*
X160145714Y-57748580D02*
X160193333Y-57796200D01*
X160193333Y-57796200D02*
X160288571Y-57843819D01*
X160288571Y-57843819D02*
X160479047Y-57843819D01*
X160479047Y-57843819D02*
X160574285Y-57796200D01*
X160574285Y-57796200D02*
X160621904Y-57748580D01*
X160621904Y-57748580D02*
X160669523Y-57653342D01*
X160669523Y-57653342D02*
X160669523Y-57462866D01*
X160669523Y-57462866D02*
X160621904Y-57367628D01*
X160621904Y-57367628D02*
X160574285Y-57320009D01*
X160574285Y-57320009D02*
X160479047Y-57272390D01*
X179749999Y-102716033D02*
X179516666Y-102382700D01*
X179349999Y-102716033D02*
X179349999Y-102016033D01*
X179349999Y-102016033D02*
X179616666Y-102016033D01*
X179616666Y-102016033D02*
X179683333Y-102049366D01*
X179683333Y-102049366D02*
X179716666Y-102082700D01*
X179716666Y-102082700D02*
X179749999Y-102149366D01*
X179749999Y-102149366D02*
X179749999Y-102249366D01*
X179749999Y-102249366D02*
X179716666Y-102316033D01*
X179716666Y-102316033D02*
X179683333Y-102349366D01*
X179683333Y-102349366D02*
X179616666Y-102382700D01*
X179616666Y-102382700D02*
X179349999Y-102382700D01*
X180349999Y-102249366D02*
X180349999Y-102716033D01*
X180183333Y-101982700D02*
X180016666Y-102482700D01*
X180016666Y-102482700D02*
X180449999Y-102482700D01*
X181016666Y-102016033D02*
X180883333Y-102016033D01*
X180883333Y-102016033D02*
X180816666Y-102049366D01*
X180816666Y-102049366D02*
X180783333Y-102082700D01*
X180783333Y-102082700D02*
X180716666Y-102182700D01*
X180716666Y-102182700D02*
X180683333Y-102316033D01*
X180683333Y-102316033D02*
X180683333Y-102582700D01*
X180683333Y-102582700D02*
X180716666Y-102649366D01*
X180716666Y-102649366D02*
X180750000Y-102682700D01*
X180750000Y-102682700D02*
X180816666Y-102716033D01*
X180816666Y-102716033D02*
X180950000Y-102716033D01*
X180950000Y-102716033D02*
X181016666Y-102682700D01*
X181016666Y-102682700D02*
X181050000Y-102649366D01*
X181050000Y-102649366D02*
X181083333Y-102582700D01*
X181083333Y-102582700D02*
X181083333Y-102416033D01*
X181083333Y-102416033D02*
X181050000Y-102349366D01*
X181050000Y-102349366D02*
X181016666Y-102316033D01*
X181016666Y-102316033D02*
X180950000Y-102282700D01*
X180950000Y-102282700D02*
X180816666Y-102282700D01*
X180816666Y-102282700D02*
X180750000Y-102316033D01*
X180750000Y-102316033D02*
X180716666Y-102349366D01*
X180716666Y-102349366D02*
X180683333Y-102416033D01*
X171449999Y-102316033D02*
X171216666Y-101982700D01*
X171049999Y-102316033D02*
X171049999Y-101616033D01*
X171049999Y-101616033D02*
X171316666Y-101616033D01*
X171316666Y-101616033D02*
X171383333Y-101649366D01*
X171383333Y-101649366D02*
X171416666Y-101682700D01*
X171416666Y-101682700D02*
X171449999Y-101749366D01*
X171449999Y-101749366D02*
X171449999Y-101849366D01*
X171449999Y-101849366D02*
X171416666Y-101916033D01*
X171416666Y-101916033D02*
X171383333Y-101949366D01*
X171383333Y-101949366D02*
X171316666Y-101982700D01*
X171316666Y-101982700D02*
X171049999Y-101982700D01*
X171683333Y-101616033D02*
X172116666Y-101616033D01*
X172116666Y-101616033D02*
X171883333Y-101882700D01*
X171883333Y-101882700D02*
X171983333Y-101882700D01*
X171983333Y-101882700D02*
X172049999Y-101916033D01*
X172049999Y-101916033D02*
X172083333Y-101949366D01*
X172083333Y-101949366D02*
X172116666Y-102016033D01*
X172116666Y-102016033D02*
X172116666Y-102182700D01*
X172116666Y-102182700D02*
X172083333Y-102249366D01*
X172083333Y-102249366D02*
X172049999Y-102282700D01*
X172049999Y-102282700D02*
X171983333Y-102316033D01*
X171983333Y-102316033D02*
X171783333Y-102316033D01*
X171783333Y-102316033D02*
X171716666Y-102282700D01*
X171716666Y-102282700D02*
X171683333Y-102249366D01*
X172550000Y-101616033D02*
X172616666Y-101616033D01*
X172616666Y-101616033D02*
X172683333Y-101649366D01*
X172683333Y-101649366D02*
X172716666Y-101682700D01*
X172716666Y-101682700D02*
X172750000Y-101749366D01*
X172750000Y-101749366D02*
X172783333Y-101882700D01*
X172783333Y-101882700D02*
X172783333Y-102049366D01*
X172783333Y-102049366D02*
X172750000Y-102182700D01*
X172750000Y-102182700D02*
X172716666Y-102249366D01*
X172716666Y-102249366D02*
X172683333Y-102282700D01*
X172683333Y-102282700D02*
X172616666Y-102316033D01*
X172616666Y-102316033D02*
X172550000Y-102316033D01*
X172550000Y-102316033D02*
X172483333Y-102282700D01*
X172483333Y-102282700D02*
X172450000Y-102249366D01*
X172450000Y-102249366D02*
X172416666Y-102182700D01*
X172416666Y-102182700D02*
X172383333Y-102049366D01*
X172383333Y-102049366D02*
X172383333Y-101882700D01*
X172383333Y-101882700D02*
X172416666Y-101749366D01*
X172416666Y-101749366D02*
X172450000Y-101682700D01*
X172450000Y-101682700D02*
X172483333Y-101649366D01*
X172483333Y-101649366D02*
X172550000Y-101616033D01*
X135098095Y-57843819D02*
X135098095Y-56843819D01*
X135098095Y-57320009D02*
X135669523Y-57320009D01*
X135669523Y-57843819D02*
X135669523Y-56843819D01*
X136098095Y-56939057D02*
X136145714Y-56891438D01*
X136145714Y-56891438D02*
X136240952Y-56843819D01*
X136240952Y-56843819D02*
X136479047Y-56843819D01*
X136479047Y-56843819D02*
X136574285Y-56891438D01*
X136574285Y-56891438D02*
X136621904Y-56939057D01*
X136621904Y-56939057D02*
X136669523Y-57034295D01*
X136669523Y-57034295D02*
X136669523Y-57129533D01*
X136669523Y-57129533D02*
X136621904Y-57272390D01*
X136621904Y-57272390D02*
X136050476Y-57843819D01*
X136050476Y-57843819D02*
X136669523Y-57843819D01*
X131449999Y-71016033D02*
X131216666Y-70682700D01*
X131049999Y-71016033D02*
X131049999Y-70316033D01*
X131049999Y-70316033D02*
X131316666Y-70316033D01*
X131316666Y-70316033D02*
X131383333Y-70349366D01*
X131383333Y-70349366D02*
X131416666Y-70382700D01*
X131416666Y-70382700D02*
X131449999Y-70449366D01*
X131449999Y-70449366D02*
X131449999Y-70549366D01*
X131449999Y-70549366D02*
X131416666Y-70616033D01*
X131416666Y-70616033D02*
X131383333Y-70649366D01*
X131383333Y-70649366D02*
X131316666Y-70682700D01*
X131316666Y-70682700D02*
X131049999Y-70682700D01*
X131716666Y-70382700D02*
X131749999Y-70349366D01*
X131749999Y-70349366D02*
X131816666Y-70316033D01*
X131816666Y-70316033D02*
X131983333Y-70316033D01*
X131983333Y-70316033D02*
X132049999Y-70349366D01*
X132049999Y-70349366D02*
X132083333Y-70382700D01*
X132083333Y-70382700D02*
X132116666Y-70449366D01*
X132116666Y-70449366D02*
X132116666Y-70516033D01*
X132116666Y-70516033D02*
X132083333Y-70616033D01*
X132083333Y-70616033D02*
X131683333Y-71016033D01*
X131683333Y-71016033D02*
X132116666Y-71016033D01*
X132716666Y-70316033D02*
X132583333Y-70316033D01*
X132583333Y-70316033D02*
X132516666Y-70349366D01*
X132516666Y-70349366D02*
X132483333Y-70382700D01*
X132483333Y-70382700D02*
X132416666Y-70482700D01*
X132416666Y-70482700D02*
X132383333Y-70616033D01*
X132383333Y-70616033D02*
X132383333Y-70882700D01*
X132383333Y-70882700D02*
X132416666Y-70949366D01*
X132416666Y-70949366D02*
X132450000Y-70982700D01*
X132450000Y-70982700D02*
X132516666Y-71016033D01*
X132516666Y-71016033D02*
X132650000Y-71016033D01*
X132650000Y-71016033D02*
X132716666Y-70982700D01*
X132716666Y-70982700D02*
X132750000Y-70949366D01*
X132750000Y-70949366D02*
X132783333Y-70882700D01*
X132783333Y-70882700D02*
X132783333Y-70716033D01*
X132783333Y-70716033D02*
X132750000Y-70649366D01*
X132750000Y-70649366D02*
X132716666Y-70616033D01*
X132716666Y-70616033D02*
X132650000Y-70582700D01*
X132650000Y-70582700D02*
X132516666Y-70582700D01*
X132516666Y-70582700D02*
X132450000Y-70616033D01*
X132450000Y-70616033D02*
X132416666Y-70649366D01*
X132416666Y-70649366D02*
X132383333Y-70716033D01*
X171949999Y-70716034D02*
X171716666Y-70382701D01*
X171549999Y-70716034D02*
X171549999Y-70016034D01*
X171549999Y-70016034D02*
X171816666Y-70016034D01*
X171816666Y-70016034D02*
X171883333Y-70049367D01*
X171883333Y-70049367D02*
X171916666Y-70082701D01*
X171916666Y-70082701D02*
X171949999Y-70149367D01*
X171949999Y-70149367D02*
X171949999Y-70249367D01*
X171949999Y-70249367D02*
X171916666Y-70316034D01*
X171916666Y-70316034D02*
X171883333Y-70349367D01*
X171883333Y-70349367D02*
X171816666Y-70382701D01*
X171816666Y-70382701D02*
X171549999Y-70382701D01*
X172616666Y-70716034D02*
X172216666Y-70716034D01*
X172416666Y-70716034D02*
X172416666Y-70016034D01*
X172416666Y-70016034D02*
X172349999Y-70116034D01*
X172349999Y-70116034D02*
X172283333Y-70182701D01*
X172283333Y-70182701D02*
X172216666Y-70216034D01*
X172850000Y-70016034D02*
X173316666Y-70016034D01*
X173316666Y-70016034D02*
X173016666Y-70716034D01*
D11*
%TO.C,R29*%
X81864359Y-104126000D02*
X82171641Y-104126000D01*
X81864359Y-104886000D02*
X82171641Y-104886000D01*
%TO.C,R45*%
X193846359Y-101620000D02*
X194153641Y-101620000D01*
X193846359Y-102380000D02*
X194153641Y-102380000D01*
%TO.C,R40*%
X110153641Y-72619999D02*
X109846359Y-72619999D01*
X110153641Y-73379999D02*
X109846359Y-73379999D01*
%TO.C,U10*%
D12*
X184000000Y-68000000D02*
X192000000Y-68000000D01*
X192000000Y-76000000D01*
X184000000Y-76000000D01*
X184000000Y-68000000D01*
D13*
X192873742Y-75870000D02*
G75*
G02*
X192646258Y-75870000I-113742J0D01*
G01*
X192646258Y-75870000D02*
G75*
G02*
X192873742Y-75870000I113742J0D01*
G01*
D11*
%TO.C,R44*%
X121846359Y-70120001D02*
X122153641Y-70120001D01*
X121846359Y-70880001D02*
X122153641Y-70880001D01*
%TO.C,R49*%
X182153641Y-104120000D02*
X181846359Y-104120000D01*
X182153641Y-104880000D02*
X181846359Y-104880000D01*
%TO.C,U12*%
D12*
X192000000Y-107000000D02*
X184000000Y-107000000D01*
X184000000Y-99000000D01*
X192000000Y-99000000D01*
X192000000Y-107000000D01*
D13*
X183353742Y-99130000D02*
G75*
G02*
X183126258Y-99130000I-113742J0D01*
G01*
X183126258Y-99130000D02*
G75*
G02*
X183353742Y-99130000I113742J0D01*
G01*
%TO.C,U4*%
D12*
X120000000Y-107000000D02*
X112000000Y-107000000D01*
X112000000Y-99000000D01*
X120000000Y-99000000D01*
X120000000Y-107000000D01*
D13*
X111353742Y-99130000D02*
G75*
G02*
X111126258Y-99130000I-113742J0D01*
G01*
X111126258Y-99130000D02*
G75*
G02*
X111353742Y-99130000I113742J0D01*
G01*
D11*
%TO.C,R1*%
X73527064Y-85665000D02*
X73072936Y-85665000D01*
X73527064Y-87135000D02*
X73072936Y-87135000D01*
%TO.C,R21*%
X145846359Y-103520000D02*
X146153641Y-103520000D01*
X145846359Y-104280000D02*
X146153641Y-104280000D01*
%TO.C,R19*%
X134153641Y-102020000D02*
X133846359Y-102020000D01*
X134153641Y-102780000D02*
X133846359Y-102780000D01*
%TO.C,R20*%
X147946359Y-102720000D02*
X148253641Y-102720000D01*
X147946359Y-103480000D02*
X148253641Y-103480000D01*
%TO.C,R38*%
X182153641Y-70720000D02*
X181846359Y-70720000D01*
X182153641Y-71480000D02*
X181846359Y-71480000D01*
%TO.C,R36*%
X193846359Y-72220000D02*
X194153641Y-72220000D01*
X193846359Y-72980000D02*
X194153641Y-72980000D01*
%TO.C,R8*%
X97846359Y-101620000D02*
X98153641Y-101620000D01*
X97846359Y-102380000D02*
X98153641Y-102380000D01*
%TO.C,R54*%
X97846359Y-70120001D02*
X98153641Y-70120001D01*
X97846359Y-70880001D02*
X98153641Y-70880001D01*
%TO.C,U8*%
D12*
X136000000Y-68000000D02*
X144000000Y-68000000D01*
X144000000Y-76000000D01*
X136000000Y-76000000D01*
X136000000Y-68000000D01*
D13*
X144873742Y-75870000D02*
G75*
G02*
X144646258Y-75870000I-113742J0D01*
G01*
X144646258Y-75870000D02*
G75*
G02*
X144873742Y-75870000I113742J0D01*
G01*
D11*
%TO.C,R16*%
X158153641Y-70720000D02*
X157846359Y-70720000D01*
X158153641Y-71480000D02*
X157846359Y-71480000D01*
%TO.C,R11*%
X97846359Y-103520000D02*
X98153641Y-103520000D01*
X97846359Y-104280000D02*
X98153641Y-104280000D01*
%TO.C,TH2*%
X163477500Y-87737258D02*
X163477500Y-87262742D01*
X164522500Y-87737258D02*
X164522500Y-87262742D01*
%TO.C,U13*%
D12*
X88000000Y-68000000D02*
X96000000Y-68000000D01*
X96000000Y-76000000D01*
X88000000Y-76000000D01*
X88000000Y-68000000D01*
D13*
X96873742Y-75870000D02*
G75*
G02*
X96646258Y-75870000I-113742J0D01*
G01*
X96646258Y-75870000D02*
G75*
G02*
X96873742Y-75870000I113742J0D01*
G01*
D11*
%TO.C,R47*%
X195946359Y-102720000D02*
X196253641Y-102720000D01*
X195946359Y-103480000D02*
X196253641Y-103480000D01*
%TO.C,R18*%
X145846359Y-101620000D02*
X146153641Y-101620000D01*
X145846359Y-102380000D02*
X146153641Y-102380000D01*
%TO.C,R2*%
X73527064Y-87765000D02*
X73072936Y-87765000D01*
X73527064Y-89235000D02*
X73072936Y-89235000D01*
%TO.C,R27*%
X145846359Y-70120001D02*
X146153641Y-70120001D01*
X145846359Y-70880001D02*
X146153641Y-70880001D01*
%TO.C,R33*%
X169846359Y-103520000D02*
X170153641Y-103520000D01*
X169846359Y-104280000D02*
X170153641Y-104280000D01*
%TO.C,R4*%
X110153641Y-102020000D02*
X109846359Y-102020000D01*
X110153641Y-102780000D02*
X109846359Y-102780000D01*
%TO.C,R41*%
X121846359Y-72220000D02*
X122153641Y-72220000D01*
X121846359Y-72980000D02*
X122153641Y-72980000D01*
%TO.C,R51*%
X97846359Y-72220000D02*
X98153641Y-72220000D01*
X97846359Y-72980000D02*
X98153641Y-72980000D01*
%TO.C,R12*%
X86153641Y-104120000D02*
X85846359Y-104120000D01*
X86153641Y-104880000D02*
X85846359Y-104880000D01*
%TO.C,R15*%
X156053641Y-71520000D02*
X155746359Y-71520000D01*
X156053641Y-72280000D02*
X155746359Y-72280000D01*
%TO.C,U9*%
D12*
X168000000Y-107000000D02*
X160000000Y-107000000D01*
X160000000Y-99000000D01*
X168000000Y-99000000D01*
X168000000Y-107000000D01*
D13*
X159353742Y-99130000D02*
G75*
G02*
X159126258Y-99130000I-113742J0D01*
G01*
X159126258Y-99130000D02*
G75*
G02*
X159353742Y-99130000I113742J0D01*
G01*
D11*
%TO.C,R6*%
X121846359Y-103520000D02*
X122153641Y-103520000D01*
X121846359Y-104280000D02*
X122153641Y-104280000D01*
%TO.C,U5*%
D12*
X96000000Y-107000000D02*
X88000000Y-107000000D01*
X88000000Y-99000000D01*
X96000000Y-99000000D01*
X96000000Y-107000000D01*
D13*
X87353742Y-99130000D02*
G75*
G02*
X87126258Y-99130000I-113742J0D01*
G01*
X87126258Y-99130000D02*
G75*
G02*
X87353742Y-99130000I113742J0D01*
G01*
D11*
%TO.C,R7*%
X110153641Y-104120000D02*
X109846359Y-104120000D01*
X110153641Y-104880000D02*
X109846359Y-104880000D01*
%TO.C,R48*%
X193846359Y-103520000D02*
X194153641Y-103520000D01*
X193846359Y-104280000D02*
X194153641Y-104280000D01*
%TO.C,R3*%
X121846359Y-101620000D02*
X122153641Y-101620000D01*
X121846359Y-102380000D02*
X122153641Y-102380000D01*
%TO.C,R32*%
X171946359Y-102720000D02*
X172253641Y-102720000D01*
X171946359Y-103480000D02*
X172253641Y-103480000D01*
%TO.C,R50*%
X86153641Y-72619999D02*
X85846359Y-72619999D01*
X86153641Y-73379999D02*
X85846359Y-73379999D01*
%TO.C,R39*%
X193846359Y-70120001D02*
X194153641Y-70120001D01*
X193846359Y-70880001D02*
X194153641Y-70880001D01*
%TO.C,R37*%
X180053641Y-71520000D02*
X179746359Y-71520000D01*
X180053641Y-72280000D02*
X179746359Y-72280000D01*
%TO.C,R53*%
X86153641Y-70720000D02*
X85846359Y-70720000D01*
X86153641Y-71480000D02*
X85846359Y-71480000D01*
%TO.C,U11*%
D12*
X112000000Y-68000000D02*
X120000000Y-68000000D01*
X120000000Y-76000000D01*
X112000000Y-76000000D01*
X112000000Y-68000000D01*
D13*
X120873742Y-75870000D02*
G75*
G02*
X120646258Y-75870000I-113742J0D01*
G01*
X120646258Y-75870000D02*
G75*
G02*
X120873742Y-75870000I113742J0D01*
G01*
D11*
%TO.C,R43*%
X110153641Y-70720000D02*
X109846359Y-70720000D01*
X110153641Y-71480000D02*
X109846359Y-71480000D01*
%TO.C,R10*%
X99946359Y-102720000D02*
X100253641Y-102720000D01*
X99946359Y-103480000D02*
X100253641Y-103480000D01*
%TO.C,U6*%
D12*
X160000000Y-68000000D02*
X168000000Y-68000000D01*
X168000000Y-76000000D01*
X160000000Y-76000000D01*
X160000000Y-68000000D01*
D13*
X168873742Y-75870000D02*
G75*
G02*
X168646258Y-75870000I-113742J0D01*
G01*
X168646258Y-75870000D02*
G75*
G02*
X168873742Y-75870000I113742J0D01*
G01*
D11*
%TO.C,R25*%
X132053641Y-71520000D02*
X131746359Y-71520000D01*
X132053641Y-72280000D02*
X131746359Y-72280000D01*
%TO.C,TH1*%
X115477500Y-87737258D02*
X115477500Y-87262742D01*
X116522500Y-87737258D02*
X116522500Y-87262742D01*
%TO.C,R34*%
X158153641Y-104120000D02*
X157846359Y-104120000D01*
X158153641Y-104880000D02*
X157846359Y-104880000D01*
%TO.C,R42*%
X108053641Y-71520000D02*
X107746359Y-71520000D01*
X108053641Y-72280000D02*
X107746359Y-72280000D01*
%TO.C,R5*%
X123946359Y-102720000D02*
X124253641Y-102720000D01*
X123946359Y-103480000D02*
X124253641Y-103480000D01*
%TO.C,R24*%
X145846359Y-72220000D02*
X146153641Y-72220000D01*
X145846359Y-72980000D02*
X146153641Y-72980000D01*
%TO.C,R52*%
X84053641Y-71520000D02*
X83746359Y-71520000D01*
X84053641Y-72280000D02*
X83746359Y-72280000D01*
%TO.C,R28*%
X81446359Y-72520000D02*
X81753641Y-72520000D01*
X81446359Y-73280000D02*
X81753641Y-73280000D01*
%TO.C,R23*%
X134153641Y-72619999D02*
X133846359Y-72619999D01*
X134153641Y-73379999D02*
X133846359Y-73379999D01*
%TO.C,U7*%
D12*
X144000000Y-107000000D02*
X136000000Y-107000000D01*
X136000000Y-99000000D01*
X144000000Y-99000000D01*
X144000000Y-107000000D01*
D13*
X135353742Y-99130000D02*
G75*
G02*
X135126258Y-99130000I-113742J0D01*
G01*
X135126258Y-99130000D02*
G75*
G02*
X135353742Y-99130000I113742J0D01*
G01*
D11*
%TO.C,R35*%
X182153641Y-72619999D02*
X181846359Y-72619999D01*
X182153641Y-73379999D02*
X181846359Y-73379999D01*
%TO.C,R22*%
X134153641Y-104120000D02*
X133846359Y-104120000D01*
X134153641Y-104880000D02*
X133846359Y-104880000D01*
%TO.C,R14*%
X169846359Y-72220000D02*
X170153641Y-72220000D01*
X169846359Y-72980000D02*
X170153641Y-72980000D01*
%TO.C,R13*%
X158153641Y-72619999D02*
X157846359Y-72619999D01*
X158153641Y-73379999D02*
X157846359Y-73379999D01*
%TO.C,R31*%
X158153641Y-102020000D02*
X157846359Y-102020000D01*
X158153641Y-102780000D02*
X157846359Y-102780000D01*
%TO.C,R9*%
X86153641Y-102020000D02*
X85846359Y-102020000D01*
X86153641Y-102780000D02*
X85846359Y-102780000D01*
%TO.C,R46*%
X182153641Y-102020000D02*
X181846359Y-102020000D01*
X182153641Y-102780000D02*
X181846359Y-102780000D01*
%TO.C,R30*%
X169846359Y-101620000D02*
X170153641Y-101620000D01*
X169846359Y-102380000D02*
X170153641Y-102380000D01*
%TO.C,R26*%
X134153641Y-70720000D02*
X133846359Y-70720000D01*
X134153641Y-71480000D02*
X133846359Y-71480000D01*
%TO.C,R17*%
X169846359Y-70120001D02*
X170153641Y-70120001D01*
X169846359Y-70880001D02*
X170153641Y-70880001D01*
%TD*%
D14*
X204750000Y-55000000D02*
X204750000Y-120000000D01*
X65000000Y-55000000D02*
X65000000Y-120000000D01*
X65000000Y-120000000D02*
X204750000Y-120000000D01*
X65000000Y-55000000D02*
X204750000Y-55000000D01*
M02*
