%TF.GenerationSoftware,KiCad,Pcbnew,8.0.6*%
%TF.CreationDate,2024-12-11T18:08:37+01:00*%
%TF.ProjectId,AsicsBoard - 10xBM1370 - 01A,41736963-7342-46f6-9172-64202d203130,rev?*%
%TF.SameCoordinates,Original*%
%TF.FileFunction,Soldermask,Bot*%
%TF.FilePolarity,Negative*%
%FSLAX46Y46*%
G04 Gerber Fmt 4.6, Leading zero omitted, Abs format (unit mm)*
G04 Created by KiCad (PCBNEW 8.0.6) date 2024-12-11 18:08:37*
%MOMM*%
%LPD*%
G01*
G04 APERTURE LIST*
G04 Aperture macros list*
%AMRoundRect*
0 Rectangle with rounded corners*
0 $1 Rounding radius*
0 $2 $3 $4 $5 $6 $7 $8 $9 X,Y pos of 4 corners*
0 Add a 4 corners polygon primitive as box body*
4,1,4,$2,$3,$4,$5,$6,$7,$8,$9,$2,$3,0*
0 Add four circle primitives for the rounded corners*
1,1,$1+$1,$2,$3*
1,1,$1+$1,$4,$5*
1,1,$1+$1,$6,$7*
1,1,$1+$1,$8,$9*
0 Add four rect primitives between the rounded corners*
20,1,$1+$1,$2,$3,$4,$5,0*
20,1,$1+$1,$4,$5,$6,$7,0*
20,1,$1+$1,$6,$7,$8,$9,0*
20,1,$1+$1,$8,$9,$2,$3,0*%
G04 Aperture macros list end*
%ADD10R,1.300000X1.100000*%
%ADD11RoundRect,0.140000X0.140000X0.170000X-0.140000X0.170000X-0.140000X-0.170000X0.140000X-0.170000X0*%
%ADD12C,3.200000*%
%ADD13RoundRect,0.140000X-0.170000X0.140000X-0.170000X-0.140000X0.170000X-0.140000X0.170000X0.140000X0*%
%ADD14RoundRect,0.140000X-0.140000X-0.170000X0.140000X-0.170000X0.140000X0.170000X-0.140000X0.170000X0*%
%ADD15RoundRect,0.140000X0.170000X-0.140000X0.170000X0.140000X-0.170000X0.140000X-0.170000X-0.140000X0*%
%ADD16RoundRect,0.250000X1.100000X-0.325000X1.100000X0.325000X-1.100000X0.325000X-1.100000X-0.325000X0*%
%ADD17C,1.000000*%
%ADD18RoundRect,0.250000X0.325000X1.100000X-0.325000X1.100000X-0.325000X-1.100000X0.325000X-1.100000X0*%
%ADD19RoundRect,0.250000X-0.325000X-1.100000X0.325000X-1.100000X0.325000X1.100000X-0.325000X1.100000X0*%
%ADD20R,3.150000X1.000000*%
%ADD21C,0.800000*%
%ADD22C,6.400000*%
%ADD23RoundRect,0.250000X0.337500X0.475000X-0.337500X0.475000X-0.337500X-0.475000X0.337500X-0.475000X0*%
%ADD24RoundRect,0.512160X-0.469840X0.069840X-0.469840X-0.069840X0.469840X-0.069840X0.469840X0.069840X0*%
%ADD25RoundRect,0.510640X-0.471360X1.221360X-0.471360X-1.221360X0.471360X-1.221360X0.471360X1.221360X0*%
%ADD26RoundRect,0.250000X-1.100000X0.325000X-1.100000X-0.325000X1.100000X-0.325000X1.100000X0.325000X0*%
%ADD27C,2.000000*%
%TA.AperFunction,Profile*%
%ADD28C,0.100000*%
%TD*%
G04 APERTURE END LIST*
D10*
%TO.C,U3*%
X71062000Y-102157000D03*
X73162000Y-102157000D03*
X73162000Y-103807000D03*
X71062000Y-103807000D03*
%TD*%
D11*
%TO.C,C4*%
X73280000Y-67084500D03*
X72320000Y-67084500D03*
%TD*%
%TO.C,C3*%
X73180000Y-116952000D03*
X72220000Y-116952000D03*
%TD*%
D12*
%TO.C,H6*%
X92000000Y-115000000D03*
%TD*%
%TO.C,H3*%
X188000000Y-60000000D03*
%TD*%
%TO.C,H7*%
X116000000Y-60000000D03*
%TD*%
%TO.C,H9*%
X116000000Y-115000000D03*
%TD*%
%TO.C,H5*%
X140000000Y-115000000D03*
%TD*%
%TO.C,H10*%
X164000000Y-115000000D03*
%TD*%
%TO.C,H4*%
X188000000Y-115000000D03*
%TD*%
%TO.C,H1*%
X92000000Y-60000000D03*
%TD*%
%TO.C,H8*%
X164000000Y-60000000D03*
%TD*%
%TO.C,H2*%
X140000000Y-60000000D03*
%TD*%
D13*
%TO.C,C158*%
X181500000Y-107020000D03*
X181500000Y-107980000D03*
%TD*%
%TO.C,C98*%
X158900000Y-97220000D03*
X158900000Y-98180000D03*
%TD*%
D14*
%TO.C,C142*%
X191020000Y-96200000D03*
X191980000Y-96200000D03*
%TD*%
D15*
%TO.C,C56*%
X170500000Y-67980001D03*
X170500000Y-67020001D03*
%TD*%
D14*
%TO.C,C109*%
X191019999Y-78800000D03*
X191979999Y-78800000D03*
%TD*%
D15*
%TO.C,C69*%
X147300000Y-98180000D03*
X147300000Y-97220000D03*
%TD*%
D13*
%TO.C,C22*%
X109500000Y-107020000D03*
X109500000Y-107980000D03*
%TD*%
D16*
%TO.C,C112*%
X188000000Y-75017000D03*
X188000000Y-72067000D03*
%TD*%
D11*
%TO.C,C125*%
X112980000Y-78800000D03*
X112020000Y-78800000D03*
%TD*%
D15*
%TO.C,C141*%
X122500000Y-67980001D03*
X122500000Y-67020001D03*
%TD*%
D17*
%TO.C,TP21*%
X172188000Y-72502000D03*
%TD*%
D18*
%TO.C,C185*%
X196275000Y-87500000D03*
X193325000Y-87500000D03*
%TD*%
D15*
%TO.C,C139*%
X110500001Y-67980000D03*
X110500001Y-67020000D03*
%TD*%
D13*
%TO.C,C64*%
X134900000Y-97220000D03*
X134900000Y-98180000D03*
%TD*%
%TO.C,C118*%
X182900000Y-76819999D03*
X182900000Y-77779999D03*
%TD*%
D14*
%TO.C,C93*%
X167020000Y-95200000D03*
X167980000Y-95200000D03*
%TD*%
D19*
%TO.C,C176*%
X83725000Y-87500000D03*
X86675000Y-87500000D03*
%TD*%
D15*
%TO.C,C152*%
X193100000Y-98180000D03*
X193100000Y-97220000D03*
%TD*%
D11*
%TO.C,C58*%
X136980000Y-96200000D03*
X136020000Y-96200000D03*
%TD*%
D17*
%TO.C,TP23*%
X174220000Y-70978000D03*
%TD*%
D13*
%TO.C,C20*%
X121500000Y-107020000D03*
X121500000Y-107980000D03*
%TD*%
D15*
%TO.C,C88*%
X134500001Y-67980000D03*
X134500001Y-67020000D03*
%TD*%
%TO.C,C124*%
X194500000Y-67980001D03*
X194500000Y-67020001D03*
%TD*%
D11*
%TO.C,C159*%
X88980000Y-78800000D03*
X88020000Y-78800000D03*
%TD*%
D15*
%TO.C,C138*%
X109500001Y-67980000D03*
X109500001Y-67020000D03*
%TD*%
D20*
%TO.C,J1*%
X72195000Y-91232000D03*
X67145000Y-91232000D03*
X72195000Y-93772000D03*
X67145000Y-93772000D03*
X72195000Y-96312000D03*
X67145000Y-96312000D03*
X72195000Y-98852000D03*
X67145000Y-98852000D03*
%TD*%
D13*
%TO.C,C148*%
X181800000Y-97220000D03*
X181800000Y-98180000D03*
%TD*%
D21*
%TO.C,H33*%
X202600000Y-91000000D03*
X201900000Y-92900000D03*
X201900000Y-89100000D03*
X200000000Y-93600000D03*
D22*
X200000000Y-91000000D03*
D21*
X200000000Y-88400000D03*
X198100000Y-92900000D03*
X198100000Y-89100000D03*
X197400000Y-91000000D03*
%TD*%
D15*
%TO.C,C166*%
X97099999Y-77780000D03*
X97099999Y-76820000D03*
%TD*%
D14*
%TO.C,C8*%
X119020000Y-95200000D03*
X119980000Y-95200000D03*
%TD*%
D19*
%TO.C,C184*%
X179725000Y-87500000D03*
X182675000Y-87500000D03*
%TD*%
D13*
%TO.C,C19*%
X122500000Y-107020000D03*
X122500000Y-107980000D03*
%TD*%
D14*
%TO.C,C66*%
X143020000Y-97200000D03*
X143980000Y-97200000D03*
%TD*%
D17*
%TO.C,TP9*%
X202414000Y-73264000D03*
%TD*%
D11*
%TO.C,C167*%
X95979999Y-77800000D03*
X95019999Y-77800000D03*
%TD*%
D17*
%TO.C,TP11*%
X200382000Y-73264000D03*
%TD*%
D14*
%TO.C,C6*%
X119020000Y-96200000D03*
X119980000Y-96200000D03*
%TD*%
D13*
%TO.C,C11*%
X108700000Y-97220000D03*
X108700000Y-98180000D03*
%TD*%
D15*
%TO.C,C140*%
X121500000Y-67980001D03*
X121500000Y-67020001D03*
%TD*%
D14*
%TO.C,C75*%
X143019999Y-78800000D03*
X143979999Y-78800000D03*
%TD*%
D21*
%TO.C,H11*%
X82600000Y-84000000D03*
X81900000Y-85900000D03*
X81900000Y-82100000D03*
X80000000Y-86600000D03*
D22*
X80000000Y-84000000D03*
D21*
X80000000Y-81400000D03*
X78100000Y-85900000D03*
X78100000Y-82100000D03*
X77400000Y-84000000D03*
%TD*%
D17*
%TO.C,TP15*%
X81002000Y-100188000D03*
%TD*%
D13*
%TO.C,C36*%
X98500000Y-107020000D03*
X98500000Y-107980000D03*
%TD*%
D17*
%TO.C,TP1*%
X75400000Y-114666000D03*
%TD*%
D13*
%TO.C,C73*%
X133500000Y-107020000D03*
X133500000Y-107980000D03*
%TD*%
%TO.C,C12*%
X109800000Y-97220000D03*
X109800000Y-98180000D03*
%TD*%
%TO.C,C28*%
X84700000Y-97220000D03*
X84700000Y-98180000D03*
%TD*%
D17*
%TO.C,TP5*%
X103100000Y-102300000D03*
%TD*%
D13*
%TO.C,C156*%
X193500000Y-107020000D03*
X193500000Y-107980000D03*
%TD*%
D17*
%TO.C,TP14*%
X82018000Y-71232000D03*
%TD*%
D14*
%TO.C,C99*%
X160020000Y-97200000D03*
X160980000Y-97200000D03*
%TD*%
D23*
%TO.C,C2*%
X73276500Y-58067500D03*
X71201500Y-58067500D03*
%TD*%
D21*
%TO.C,H27*%
X178600000Y-84000000D03*
X177900000Y-85900000D03*
X177900000Y-82100000D03*
X176000000Y-86600000D03*
D22*
X176000000Y-84000000D03*
D21*
X176000000Y-81400000D03*
X174100000Y-85900000D03*
X174100000Y-82100000D03*
X173400000Y-84000000D03*
%TD*%
D13*
%TO.C,C169*%
X86900000Y-76819999D03*
X86900000Y-77779999D03*
%TD*%
D17*
%TO.C,TP4*%
X101500000Y-103000000D03*
%TD*%
D11*
%TO.C,C108*%
X184980000Y-78800000D03*
X184020000Y-78800000D03*
%TD*%
%TO.C,C133*%
X119979999Y-77800000D03*
X119019999Y-77800000D03*
%TD*%
D14*
%TO.C,C57*%
X143020000Y-96200000D03*
X143980000Y-96200000D03*
%TD*%
D15*
%TO.C,C123*%
X193500000Y-67980001D03*
X193500000Y-67020001D03*
%TD*%
D11*
%TO.C,C9*%
X112980000Y-95200000D03*
X112020000Y-95200000D03*
%TD*%
D24*
%TO.C,U2*%
X73205000Y-110080000D03*
X73205000Y-112380000D03*
X73205000Y-114680000D03*
D25*
X66955000Y-112380000D03*
%TD*%
D13*
%TO.C,C62*%
X132700000Y-97220000D03*
X132700000Y-98180000D03*
%TD*%
D15*
%TO.C,C101*%
X169100000Y-98180000D03*
X169100000Y-97220000D03*
%TD*%
D17*
%TO.C,TP19*%
X174220000Y-74026000D03*
%TD*%
D26*
%TO.C,C10*%
X116000000Y-99983000D03*
X116000000Y-102933000D03*
%TD*%
D15*
%TO.C,C172*%
X85500001Y-67980000D03*
X85500001Y-67020000D03*
%TD*%
D14*
%TO.C,C111*%
X191019999Y-79800000D03*
X191979999Y-79800000D03*
%TD*%
D17*
%TO.C,TP8*%
X200382000Y-75296000D03*
%TD*%
D13*
%TO.C,C157*%
X182500000Y-107020000D03*
X182500000Y-107980000D03*
%TD*%
D21*
%TO.C,H14*%
X82600000Y-115000000D03*
X81900000Y-116900000D03*
X81900000Y-113100000D03*
X80000000Y-117600000D03*
D22*
X80000000Y-115000000D03*
D21*
X80000000Y-112400000D03*
X78100000Y-116900000D03*
X78100000Y-113100000D03*
X77400000Y-115000000D03*
%TD*%
D15*
%TO.C,C46*%
X170199999Y-77780000D03*
X170199999Y-76820000D03*
%TD*%
%TO.C,C35*%
X99300000Y-98180000D03*
X99300000Y-97220000D03*
%TD*%
D21*
%TO.C,H34*%
X202600000Y-115000000D03*
X201900000Y-116900000D03*
X201900000Y-113100000D03*
X200000000Y-117600000D03*
D22*
X200000000Y-115000000D03*
D21*
X200000000Y-112400000D03*
X198100000Y-116900000D03*
X198100000Y-113100000D03*
X197400000Y-115000000D03*
%TD*%
D15*
%TO.C,C68*%
X146200000Y-98180000D03*
X146200000Y-97220000D03*
%TD*%
D14*
%TO.C,C14*%
X112020000Y-97200000D03*
X112980000Y-97200000D03*
%TD*%
D11*
%TO.C,C92*%
X160980000Y-96200000D03*
X160020000Y-96200000D03*
%TD*%
D13*
%TO.C,C37*%
X97500000Y-107020000D03*
X97500000Y-107980000D03*
%TD*%
D21*
%TO.C,H21*%
X130600000Y-91000000D03*
X129900000Y-92900000D03*
X129900000Y-89100000D03*
X128000000Y-93600000D03*
D22*
X128000000Y-91000000D03*
D21*
X128000000Y-88400000D03*
X126100000Y-92900000D03*
X126100000Y-89100000D03*
X125400000Y-91000000D03*
%TD*%
D15*
%TO.C,C132*%
X121099999Y-77780000D03*
X121099999Y-76820000D03*
%TD*%
D13*
%TO.C,C147*%
X180700000Y-97220000D03*
X180700000Y-98180000D03*
%TD*%
D21*
%TO.C,H20*%
X130600000Y-60000000D03*
X129900000Y-61900000D03*
X129900000Y-58100000D03*
X128000000Y-62600000D03*
D22*
X128000000Y-60000000D03*
D21*
X128000000Y-57400000D03*
X126100000Y-61900000D03*
X126100000Y-58100000D03*
X125400000Y-60000000D03*
%TD*%
D15*
%TO.C,C80*%
X146199999Y-77780000D03*
X146199999Y-76820000D03*
%TD*%
D21*
%TO.C,H19*%
X130600000Y-84000000D03*
X129900000Y-85900000D03*
X129900000Y-82100000D03*
X128000000Y-86600000D03*
D22*
X128000000Y-84000000D03*
D21*
X128000000Y-81400000D03*
X126100000Y-85900000D03*
X126100000Y-82100000D03*
X125400000Y-84000000D03*
%TD*%
D11*
%TO.C,C40*%
X160980000Y-78800000D03*
X160020000Y-78800000D03*
%TD*%
D13*
%TO.C,C70*%
X146500000Y-107020000D03*
X146500000Y-107980000D03*
%TD*%
D21*
%TO.C,H32*%
X202600000Y-60000000D03*
X201900000Y-61900000D03*
X201900000Y-58100000D03*
X200000000Y-62600000D03*
D22*
X200000000Y-60000000D03*
D21*
X200000000Y-57400000D03*
X198100000Y-61900000D03*
X198100000Y-58100000D03*
X197400000Y-60000000D03*
%TD*%
D27*
%TO.C,FID4*%
X67000000Y-58000000D03*
%TD*%
D26*
%TO.C,C61*%
X140000000Y-99983000D03*
X140000000Y-102933000D03*
%TD*%
D14*
%TO.C,C23*%
X95020000Y-96200000D03*
X95980000Y-96200000D03*
%TD*%
D11*
%TO.C,C7*%
X112980000Y-96200000D03*
X112020000Y-96200000D03*
%TD*%
D21*
%TO.C,H13*%
X82600000Y-91000000D03*
X81900000Y-92900000D03*
X81900000Y-89100000D03*
X80000000Y-93600000D03*
D22*
X80000000Y-91000000D03*
D21*
X80000000Y-88400000D03*
X78100000Y-92900000D03*
X78100000Y-89100000D03*
X77400000Y-91000000D03*
%TD*%
%TO.C,H31*%
X202600000Y-84000000D03*
X201900000Y-85900000D03*
X201900000Y-82100000D03*
X200000000Y-86600000D03*
D22*
X200000000Y-84000000D03*
D21*
X200000000Y-81400000D03*
X198100000Y-85900000D03*
X198100000Y-82100000D03*
X197400000Y-84000000D03*
%TD*%
D26*
%TO.C,C95*%
X164000000Y-99983000D03*
X164000000Y-102933000D03*
%TD*%
D21*
%TO.C,H30*%
X178600000Y-115000000D03*
X177900000Y-116900000D03*
X177900000Y-113100000D03*
X176000000Y-117600000D03*
D22*
X176000000Y-115000000D03*
D21*
X176000000Y-112400000D03*
X174100000Y-116900000D03*
X174100000Y-113100000D03*
X173400000Y-115000000D03*
%TD*%
%TO.C,H23*%
X154600000Y-84000000D03*
X153900000Y-85900000D03*
X153900000Y-82100000D03*
X152000000Y-86600000D03*
D22*
X152000000Y-84000000D03*
D21*
X152000000Y-81400000D03*
X150100000Y-85900000D03*
X150100000Y-82100000D03*
X149400000Y-84000000D03*
%TD*%
D13*
%TO.C,C149*%
X182900000Y-97220000D03*
X182900000Y-98180000D03*
%TD*%
D21*
%TO.C,H17*%
X106600000Y-91000000D03*
X105900000Y-92900000D03*
X105900000Y-89100000D03*
X104000000Y-93600000D03*
D22*
X104000000Y-91000000D03*
D21*
X104000000Y-88400000D03*
X102100000Y-92900000D03*
X102100000Y-89100000D03*
X101400000Y-91000000D03*
%TD*%
D15*
%TO.C,C114*%
X194199999Y-77780000D03*
X194199999Y-76820000D03*
%TD*%
D17*
%TO.C,TP3*%
X101500000Y-101200000D03*
%TD*%
D15*
%TO.C,C90*%
X146500000Y-67980001D03*
X146500000Y-67020001D03*
%TD*%
D17*
%TO.C,TP16*%
X75414000Y-103998000D03*
%TD*%
D15*
%TO.C,C174*%
X97500000Y-67980001D03*
X97500000Y-67020001D03*
%TD*%
D14*
%TO.C,C160*%
X95019999Y-78800000D03*
X95979999Y-78800000D03*
%TD*%
D21*
%TO.C,H25*%
X154600000Y-91000000D03*
X153900000Y-92900000D03*
X153900000Y-89100000D03*
X152000000Y-93600000D03*
D22*
X152000000Y-91000000D03*
D21*
X152000000Y-88400000D03*
X150100000Y-92900000D03*
X150100000Y-89100000D03*
X149400000Y-91000000D03*
%TD*%
D17*
%TO.C,TP7*%
X99700000Y-104000000D03*
%TD*%
D15*
%TO.C,C53*%
X157500001Y-67980000D03*
X157500001Y-67020000D03*
%TD*%
D13*
%TO.C,C135*%
X110900000Y-76819999D03*
X110900000Y-77779999D03*
%TD*%
D21*
%TO.C,H22*%
X130600000Y-115000000D03*
X129900000Y-116900000D03*
X129900000Y-113100000D03*
X128000000Y-117600000D03*
D22*
X128000000Y-115000000D03*
D21*
X128000000Y-112400000D03*
X126100000Y-116900000D03*
X126100000Y-113100000D03*
X125400000Y-115000000D03*
%TD*%
D17*
%TO.C,TP6*%
X98900000Y-102000000D03*
%TD*%
D18*
%TO.C,C183*%
X172200000Y-87500000D03*
X169250000Y-87500000D03*
%TD*%
D14*
%TO.C,C32*%
X95020000Y-97200000D03*
X95980000Y-97200000D03*
%TD*%
D13*
%TO.C,C119*%
X181800000Y-76819999D03*
X181800000Y-77779999D03*
%TD*%
D15*
%TO.C,C87*%
X133500001Y-67980000D03*
X133500001Y-67020000D03*
%TD*%
D17*
%TO.C,TP12*%
X202922000Y-71486000D03*
%TD*%
D15*
%TO.C,C165*%
X98199999Y-77780000D03*
X98199999Y-76820000D03*
%TD*%
D11*
%TO.C,C116*%
X191979999Y-77800000D03*
X191019999Y-77800000D03*
%TD*%
D14*
%TO.C,C126*%
X119019999Y-78800000D03*
X119979999Y-78800000D03*
%TD*%
D11*
%TO.C,C42*%
X160980000Y-79800000D03*
X160020000Y-79800000D03*
%TD*%
%TO.C,C134*%
X112980000Y-77800000D03*
X112020000Y-77800000D03*
%TD*%
D27*
%TO.C,FID5*%
X67000000Y-116000000D03*
%TD*%
D14*
%TO.C,C43*%
X167019999Y-79800000D03*
X167979999Y-79800000D03*
%TD*%
%TO.C,C59*%
X143020000Y-95200000D03*
X143980000Y-95200000D03*
%TD*%
D15*
%TO.C,C153*%
X194200000Y-98180000D03*
X194200000Y-97220000D03*
%TD*%
D11*
%TO.C,C26*%
X88980000Y-95200000D03*
X88020000Y-95200000D03*
%TD*%
D13*
%TO.C,C96*%
X156700000Y-97220000D03*
X156700000Y-98180000D03*
%TD*%
D26*
%TO.C,C146*%
X188000000Y-99983000D03*
X188000000Y-102933000D03*
%TD*%
D21*
%TO.C,H15*%
X106600000Y-84000000D03*
X105900000Y-85900000D03*
X105900000Y-82100000D03*
X104000000Y-86600000D03*
D22*
X104000000Y-84000000D03*
D21*
X104000000Y-81400000D03*
X102100000Y-85900000D03*
X102100000Y-82100000D03*
X101400000Y-84000000D03*
%TD*%
D13*
%TO.C,C51*%
X157800000Y-76819999D03*
X157800000Y-77779999D03*
%TD*%
D15*
%TO.C,C113*%
X195299999Y-77780000D03*
X195299999Y-76820000D03*
%TD*%
D18*
%TO.C,C179*%
X124275000Y-87500000D03*
X121325000Y-87500000D03*
%TD*%
D15*
%TO.C,C67*%
X145100000Y-98180000D03*
X145100000Y-97220000D03*
%TD*%
D20*
%TO.C,J2*%
X72195000Y-76232000D03*
X67145000Y-76232000D03*
X72195000Y-78772000D03*
X67145000Y-78772000D03*
X72195000Y-81312000D03*
X67145000Y-81312000D03*
X72195000Y-83852000D03*
X67145000Y-83852000D03*
%TD*%
D21*
%TO.C,H12*%
X82600000Y-60000000D03*
X81900000Y-61900000D03*
X81900000Y-58100000D03*
X80000000Y-62600000D03*
D22*
X80000000Y-60000000D03*
D21*
X80000000Y-57400000D03*
X78100000Y-61900000D03*
X78100000Y-58100000D03*
X77400000Y-60000000D03*
%TD*%
D15*
%TO.C,C122*%
X182500001Y-67980000D03*
X182500001Y-67020000D03*
%TD*%
D14*
%TO.C,C100*%
X167020000Y-97200000D03*
X167980000Y-97200000D03*
%TD*%
D15*
%TO.C,C103*%
X171300000Y-98180000D03*
X171300000Y-97220000D03*
%TD*%
D14*
%TO.C,C150*%
X184020000Y-97200000D03*
X184980000Y-97200000D03*
%TD*%
D11*
%TO.C,C161*%
X88980000Y-79800000D03*
X88020000Y-79800000D03*
%TD*%
D17*
%TO.C,TP2*%
X75300000Y-67100000D03*
%TD*%
D14*
%TO.C,C162*%
X95019999Y-79800000D03*
X95979999Y-79800000D03*
%TD*%
D18*
%TO.C,C181*%
X148275000Y-87500000D03*
X145325000Y-87500000D03*
%TD*%
D11*
%TO.C,C24*%
X88980000Y-96200000D03*
X88020000Y-96200000D03*
%TD*%
D13*
%TO.C,C120*%
X180700000Y-76819999D03*
X180700000Y-77779999D03*
%TD*%
D17*
%TO.C,TP18*%
X77446000Y-101458000D03*
%TD*%
%TO.C,TP13*%
X83600000Y-73900000D03*
%TD*%
%TO.C,TP10*%
X202414000Y-75550000D03*
%TD*%
D16*
%TO.C,C78*%
X140000000Y-75017000D03*
X140000000Y-72067000D03*
%TD*%
D21*
%TO.C,H29*%
X178600000Y-91000000D03*
X177900000Y-92900000D03*
X177900000Y-89100000D03*
X176000000Y-93600000D03*
D22*
X176000000Y-91000000D03*
D21*
X176000000Y-88400000D03*
X174100000Y-92900000D03*
X174100000Y-89100000D03*
X173400000Y-91000000D03*
%TD*%
D11*
%TO.C,C117*%
X184980000Y-77800000D03*
X184020000Y-77800000D03*
%TD*%
%TO.C,C76*%
X136980000Y-79800000D03*
X136020000Y-79800000D03*
%TD*%
D16*
%TO.C,C163*%
X92000000Y-75017000D03*
X92000000Y-72067000D03*
%TD*%
D13*
%TO.C,C136*%
X109800000Y-76819999D03*
X109800000Y-77779999D03*
%TD*%
D17*
%TO.C,TP17*%
X79224000Y-101458000D03*
%TD*%
D15*
%TO.C,C47*%
X169099999Y-77780000D03*
X169099999Y-76820000D03*
%TD*%
D11*
%TO.C,C74*%
X136980000Y-78800000D03*
X136020000Y-78800000D03*
%TD*%
D13*
%TO.C,C171*%
X84700000Y-76819999D03*
X84700000Y-77779999D03*
%TD*%
%TO.C,C21*%
X110500000Y-107020000D03*
X110500000Y-107980000D03*
%TD*%
D15*
%TO.C,C81*%
X145099999Y-77780000D03*
X145099999Y-76820000D03*
%TD*%
D13*
%TO.C,C72*%
X134500000Y-107020000D03*
X134500000Y-107980000D03*
%TD*%
D21*
%TO.C,H24*%
X154600000Y-60000000D03*
X153900000Y-61900000D03*
X153900000Y-58100000D03*
X152000000Y-62600000D03*
D22*
X152000000Y-60000000D03*
D21*
X152000000Y-57400000D03*
X150100000Y-61900000D03*
X150100000Y-58100000D03*
X149400000Y-60000000D03*
%TD*%
D24*
%TO.C,U1*%
X73205000Y-60296000D03*
X73205000Y-62596000D03*
X73205000Y-64896000D03*
D25*
X66955000Y-62596000D03*
%TD*%
D19*
%TO.C,C180*%
X131725000Y-87500000D03*
X134675000Y-87500000D03*
%TD*%
D15*
%TO.C,C54*%
X158500001Y-67980000D03*
X158500001Y-67020000D03*
%TD*%
D26*
%TO.C,C27*%
X92000000Y-99983000D03*
X92000000Y-102933000D03*
%TD*%
D17*
%TO.C,TP20*%
X178284000Y-71740000D03*
%TD*%
D13*
%TO.C,C107*%
X157500000Y-107020000D03*
X157500000Y-107980000D03*
%TD*%
D15*
%TO.C,C33*%
X97100000Y-98180000D03*
X97100000Y-97220000D03*
%TD*%
D14*
%TO.C,C31*%
X88020000Y-97200000D03*
X88980000Y-97200000D03*
%TD*%
D15*
%TO.C,C18*%
X123300000Y-98180000D03*
X123300000Y-97220000D03*
%TD*%
D14*
%TO.C,C144*%
X191020000Y-95200000D03*
X191980000Y-95200000D03*
%TD*%
D15*
%TO.C,C115*%
X193099999Y-77780000D03*
X193099999Y-76820000D03*
%TD*%
D13*
%TO.C,C38*%
X86500000Y-107020000D03*
X86500000Y-107980000D03*
%TD*%
%TO.C,C50*%
X158900000Y-76819999D03*
X158900000Y-77779999D03*
%TD*%
D14*
%TO.C,C77*%
X143019999Y-79800000D03*
X143979999Y-79800000D03*
%TD*%
D11*
%TO.C,C49*%
X160980000Y-77800000D03*
X160020000Y-77800000D03*
%TD*%
D15*
%TO.C,C16*%
X121100000Y-98180000D03*
X121100000Y-97220000D03*
%TD*%
D14*
%TO.C,C128*%
X119019999Y-79800000D03*
X119979999Y-79800000D03*
%TD*%
D17*
%TO.C,TP22*%
X176252000Y-73264000D03*
%TD*%
D13*
%TO.C,C84*%
X134900000Y-76819999D03*
X134900000Y-77779999D03*
%TD*%
%TO.C,C63*%
X133800000Y-97220000D03*
X133800000Y-98180000D03*
%TD*%
D15*
%TO.C,C45*%
X171299999Y-77780000D03*
X171299999Y-76820000D03*
%TD*%
D13*
%TO.C,C104*%
X170500000Y-107020000D03*
X170500000Y-107980000D03*
%TD*%
%TO.C,C170*%
X85800000Y-76819999D03*
X85800000Y-77779999D03*
%TD*%
D21*
%TO.C,H18*%
X106600000Y-115000000D03*
X105900000Y-116900000D03*
X105900000Y-113100000D03*
X104000000Y-117600000D03*
D22*
X104000000Y-115000000D03*
D21*
X104000000Y-112400000D03*
X102100000Y-116900000D03*
X102100000Y-113100000D03*
X101400000Y-115000000D03*
%TD*%
D15*
%TO.C,C34*%
X98200000Y-98180000D03*
X98200000Y-97220000D03*
%TD*%
%TO.C,C17*%
X122200000Y-98180000D03*
X122200000Y-97220000D03*
%TD*%
D11*
%TO.C,C143*%
X184980000Y-96200000D03*
X184020000Y-96200000D03*
%TD*%
%TO.C,C110*%
X184980000Y-79800000D03*
X184020000Y-79800000D03*
%TD*%
D14*
%TO.C,C15*%
X119020000Y-97200000D03*
X119980000Y-97200000D03*
%TD*%
D15*
%TO.C,C175*%
X98500000Y-67980001D03*
X98500000Y-67020001D03*
%TD*%
D14*
%TO.C,C91*%
X167020000Y-96200000D03*
X167980000Y-96200000D03*
%TD*%
D21*
%TO.C,H26*%
X154600000Y-115000000D03*
X153900000Y-116900000D03*
X153900000Y-113100000D03*
X152000000Y-117600000D03*
D22*
X152000000Y-115000000D03*
D21*
X152000000Y-112400000D03*
X150100000Y-116900000D03*
X150100000Y-113100000D03*
X149400000Y-115000000D03*
%TD*%
D13*
%TO.C,C39*%
X85500000Y-107020000D03*
X85500000Y-107980000D03*
%TD*%
%TO.C,C85*%
X133800000Y-76819999D03*
X133800000Y-77779999D03*
%TD*%
D11*
%TO.C,C145*%
X184980000Y-95200000D03*
X184020000Y-95200000D03*
%TD*%
D14*
%TO.C,C25*%
X95020000Y-95200000D03*
X95980000Y-95200000D03*
%TD*%
D11*
%TO.C,C48*%
X167979999Y-77800000D03*
X167019999Y-77800000D03*
%TD*%
D18*
%TO.C,C177*%
X100275000Y-87500000D03*
X97325000Y-87500000D03*
%TD*%
D11*
%TO.C,C83*%
X136980000Y-77800000D03*
X136020000Y-77800000D03*
%TD*%
D16*
%TO.C,C44*%
X164000000Y-75017000D03*
X164000000Y-72067000D03*
%TD*%
D27*
%TO.C,FID6*%
X194000000Y-58000000D03*
%TD*%
D15*
%TO.C,C164*%
X99299999Y-77780000D03*
X99299999Y-76820000D03*
%TD*%
D11*
%TO.C,C127*%
X112980000Y-79800000D03*
X112020000Y-79800000D03*
%TD*%
D13*
%TO.C,C52*%
X156700000Y-76819999D03*
X156700000Y-77779999D03*
%TD*%
D15*
%TO.C,C131*%
X122199999Y-77780000D03*
X122199999Y-76820000D03*
%TD*%
D21*
%TO.C,H28*%
X178600000Y-60000000D03*
X177900000Y-61900000D03*
X177900000Y-58100000D03*
X176000000Y-62600000D03*
D22*
X176000000Y-60000000D03*
D21*
X176000000Y-57400000D03*
X174100000Y-61900000D03*
X174100000Y-58100000D03*
X173400000Y-60000000D03*
%TD*%
D13*
%TO.C,C30*%
X86900000Y-97220000D03*
X86900000Y-98180000D03*
%TD*%
D21*
%TO.C,H16*%
X106600000Y-60000000D03*
X105900000Y-61900000D03*
X105900000Y-58100000D03*
X104000000Y-62600000D03*
D22*
X104000000Y-60000000D03*
D21*
X104000000Y-57400000D03*
X102100000Y-61900000D03*
X102100000Y-58100000D03*
X101400000Y-60000000D03*
%TD*%
D15*
%TO.C,C173*%
X86500001Y-67980000D03*
X86500001Y-67020000D03*
%TD*%
D19*
%TO.C,C178*%
X107725000Y-87500000D03*
X110675000Y-87500000D03*
%TD*%
D11*
%TO.C,C94*%
X160980000Y-95200000D03*
X160020000Y-95200000D03*
%TD*%
D15*
%TO.C,C121*%
X181500001Y-67980000D03*
X181500001Y-67020000D03*
%TD*%
D13*
%TO.C,C29*%
X85800000Y-97220000D03*
X85800000Y-98180000D03*
%TD*%
%TO.C,C86*%
X132700000Y-76819999D03*
X132700000Y-77779999D03*
%TD*%
%TO.C,C105*%
X169500000Y-107020000D03*
X169500000Y-107980000D03*
%TD*%
%TO.C,C97*%
X157800000Y-97220000D03*
X157800000Y-98180000D03*
%TD*%
%TO.C,C13*%
X110900000Y-97220000D03*
X110900000Y-98180000D03*
%TD*%
D15*
%TO.C,C89*%
X145500000Y-67980001D03*
X145500000Y-67020001D03*
%TD*%
%TO.C,C154*%
X195300000Y-98180000D03*
X195300000Y-97220000D03*
%TD*%
D13*
%TO.C,C137*%
X108700000Y-76819999D03*
X108700000Y-77779999D03*
%TD*%
D14*
%TO.C,C41*%
X167019999Y-78800000D03*
X167979999Y-78800000D03*
%TD*%
D13*
%TO.C,C71*%
X145500000Y-107020000D03*
X145500000Y-107980000D03*
%TD*%
D16*
%TO.C,C129*%
X116000000Y-75017000D03*
X116000000Y-72067000D03*
%TD*%
D13*
%TO.C,C5*%
X68810000Y-102248000D03*
X68810000Y-103208000D03*
%TD*%
D19*
%TO.C,C182*%
X155725000Y-87500000D03*
X158675000Y-87500000D03*
%TD*%
D13*
%TO.C,C106*%
X158500000Y-107020000D03*
X158500000Y-107980000D03*
%TD*%
D11*
%TO.C,C82*%
X143979999Y-77800000D03*
X143019999Y-77800000D03*
%TD*%
%TO.C,C60*%
X136980000Y-95200000D03*
X136020000Y-95200000D03*
%TD*%
D15*
%TO.C,C55*%
X169500000Y-67980001D03*
X169500000Y-67020001D03*
%TD*%
D14*
%TO.C,C151*%
X191020000Y-97200000D03*
X191980000Y-97200000D03*
%TD*%
D13*
%TO.C,C155*%
X194500000Y-107020000D03*
X194500000Y-107980000D03*
%TD*%
D15*
%TO.C,C130*%
X123299999Y-77780000D03*
X123299999Y-76820000D03*
%TD*%
D14*
%TO.C,C65*%
X136020000Y-97200000D03*
X136980000Y-97200000D03*
%TD*%
D15*
%TO.C,C102*%
X170200000Y-98180000D03*
X170200000Y-97220000D03*
%TD*%
D23*
%TO.C,C1*%
X73149500Y-107808000D03*
X71074500Y-107808000D03*
%TD*%
D11*
%TO.C,C168*%
X88980000Y-77800000D03*
X88020000Y-77800000D03*
%TD*%
D15*
%TO.C,C79*%
X147299999Y-77780000D03*
X147299999Y-76820000D03*
%TD*%
D28*
X204750000Y-55000000D02*
X204750000Y-120000000D01*
X65000000Y-55000000D02*
X65000000Y-120000000D01*
X65000000Y-120000000D02*
X204750000Y-120000000D01*
X65000000Y-55000000D02*
X204750000Y-55000000D01*
M02*
